<?xml version="1.0" encoding="utf-8"?>
<!-- Generator: Adobe Illustrator 24.0.3, SVG Export Plug-In . SVG Version: 6.00 Build 0)  -->
<svg version="1.1" id="Layer_1" xmlns="http://www.w3.org/2000/svg" xmlns:xlink="http://www.w3.org/1999/xlink" x="0px" y="0px"
	 viewBox="0 0 326.06 92.62" style="enable-background:new 0 0 326.06 92.62;" xml:space="preserve">
<style type="text/css">
	.st0{fill:#FFFFFF;}
</style>
<path class="st0" d="M70.94,79.23c-5.63-4.23-11.26-8.45-16.88-12.69c-1.91-1.44-3.42-3.2-4.23-5.5c-0.38-2.71,0.83-4.6,3.04-6.01
	c2.12-1.35,3.97-3.08,6.18-4.3c7.71,5.81,15.43,11.61,23.14,17.42c0.54,0.41,1.13,0.77,1.42,1.43c0.43,1.01,0.01,2.08-1.12,2.85
	c-3.37,2.27-6.74,4.54-10.11,6.81C71.9,79.23,71.42,79.23,70.94,79.23z"/>
<path class="st0" d="M41.42,60.63c0,0-0.01,0.04-0.01,0.04c-0.21,0.15-0.28,0.35-0.22,0.6c-0.82,2.2-2.31,3.89-4.16,5.28
	c-5.44,4.1-10.9,8.19-16.35,12.28c-0.14,0.11-0.39,0.13-0.37,0.4c-0.56,0-1.12,0-1.68,0c-1.54-1.05-3.1-2.08-4.61-3.17
	c-2.21-1.6-4.66-2.86-6.66-4.74c0-0.56,0-1.12,0-1.68c0.62-0.91,1.54-1.47,2.38-2.11c7.44-5.61,14.89-11.22,22.34-16.83
	c2.2,1.36,4.16,3.07,6.33,4.47C40.43,56.48,41.44,58.25,41.42,60.63z"/>
<path class="st0" d="M47.18,13.53c1.8,0.59,3.56,1.23,4.97,2.61c3.04,2.97,3.83,7.44,1.93,11.21c-1.93,3.83-6.09,5.86-10.41,5.08
	c-3.94-0.71-7.07-4.09-7.6-8.2c-0.63-4.86,2.48-9.34,7.26-10.46c0.18-0.04,0.41,0.01,0.48-0.25C44.94,13.53,46.06,13.53,47.18,13.53
	z"/>
<path class="st0" d="M314.99,70.84c-2.08-0.01-4.15-0.05-6.23-0.02c-0.72,0.01-0.99-0.2-0.99-0.95c0.03-3.67,0.04-7.35,0-11.03
	c-0.01-0.98,0.59-0.82,1.19-0.85c0.64-0.03,1.03,0.05,1.02,0.88c-0.05,3.08,0.01,6.15-0.04,9.23c-0.01,0.85,0.26,1.11,1.1,1.07
	c1.32-0.06,2.64-0.01,3.96-0.01C314.99,69.72,314.99,70.28,314.99,70.84z"/>
<path class="st0" d="M59.05,50.73c-2.2,1.23-4.06,2.96-6.18,4.3c-2.22,1.41-3.42,3.3-3.04,6.01c-0.77-1.31-1.02-2.77-1.06-4.24
	c-0.14-4.54-0.34-9.1,0.1-13.63c0.29-3.05,1.87-5.5,4.33-7.31c4.69-3.46,9.4-6.89,14.13-10.3c3.51-2.53,8.23-1.78,10.75,1.66
	c2.49,3.39,1.82,8.09-1.63,10.64c-5.42,4.02-10.91,7.95-16.36,11.92C59.71,50.07,59.23,50.24,59.05,50.73z"/>
<path class="st0" d="M41.42,60.63c0.02-2.38-0.99-4.15-3.02-5.46c-2.17-1.4-4.12-3.11-6.33-4.47c-2.43-2.07-5.1-3.81-7.67-5.71
	c-3.21-2.37-6.48-4.67-9.69-7.05c-2.81-2.08-3.87-5.54-2.74-8.74c1.11-3.15,4.11-5.22,7.48-5.12c1.6,0.05,3.05,0.57,4.34,1.51
	c4.68,3.4,9.38,6.78,14.03,10.23c2.97,2.2,4.52,5.21,4.54,8.93c0.02,3.83,0.02,7.67,0,11.5C42.37,57.77,42.16,59.26,41.42,60.63z"/>
<path class="st0" d="M223.7,42.41c0.94-1.57,1.89-3.04,2.71-4.58c0.47-0.9,1.11-1.11,2.04-1.06c0.57,0.03,0.77,0.22,0.77,0.78
	c-0.01,3.75-0.02,7.51,0.01,11.26c0.01,0.76-0.4,0.86-0.98,0.83c-0.58-0.03-1.24,0.11-1.23-0.85c0.03-2.36,0.01-4.71,0.01-7.07
	c0-0.43,0-0.85-0.26-1.37c-0.76,1.32-1.5,2.64-2.28,3.95c-0.21,0.35-0.3,0.84-0.88,0.87c-0.67,0.03-0.73-0.53-0.95-0.91
	c-0.77-1.32-1.5-2.67-2.45-3.94c0,2.73-0.02,5.47,0.02,8.2c0.01,0.77-0.12,1.18-1.02,1.15c-0.83-0.02-1.21-0.21-1.19-1.15
	c0.06-3.47,0.01-6.95,0.03-10.42c0-0.46-0.3-1.18,0.49-1.25c0.7-0.06,1.53-0.34,2.04,0.53c0.87,1.48,1.76,2.94,2.65,4.41
	C223.35,41.96,223.51,42.14,223.7,42.41z"/>
<path class="st0" d="M148.01,61.55c-0.77,1.33-1.53,2.67-2.31,4c-0.66,1.14-1.1,1.14-1.74,0.02c-0.76-1.34-1.5-2.69-2.47-4
	c0,2.72-0.03,5.45,0.02,8.17c0.01,0.85-0.27,1.08-1.1,1.09c-0.93,0.01-1.15-0.34-1.14-1.2c0.04-3.44,0-6.87,0.03-10.31
	c0-0.45-0.31-1.2,0.45-1.28c0.73-0.08,1.6-0.38,2.13,0.57c0.74,1.32,1.54,2.61,2.33,3.9c0.2,0.33,0.33,0.73,0.79,0.99
	c0.91-1.53,1.9-3.02,2.71-4.6c0.57-1.1,1.44-0.94,2.34-0.89c0.45,0.02,0.44,0.4,0.44,0.72c0,3.76-0.01,7.51,0.01,11.27
	c0,0.87-0.54,0.79-1.12,0.81c-0.69,0.02-1.16-0.07-1.15-0.94c0.03-2.75,0.01-5.51,0.01-8.27C148.17,61.59,148.09,61.57,148.01,61.55
	z"/>
<path class="st0" d="M286.91,61.85c0,2.55-0.01,5.1,0.01,7.64c0,0.76,0.08,1.36-1.06,1.36c-1.22-0.01-1-0.74-1-1.43
	c-0.01-3.35-0.02-6.71,0.01-10.06c0-0.46-0.33-1.19,0.42-1.31c0.78-0.12,1.61-0.3,2.17,0.71c1.37,2.48,2.85,4.89,4.28,7.33
	c0.19,0.32,0.41,0.63,0.88,0.87c0-1.93,0-3.87,0-5.8c0-0.68,0.04-1.36-0.01-2.04c-0.05-0.74,0.05-1.16,0.99-1.16
	c0.93,0.01,1.01,0.41,1,1.16c-0.03,3.47,0,6.95-0.03,10.42c0,0.44,0.37,1.18-0.44,1.26c-0.75,0.08-1.54,0.18-2.07-0.75
	c-1.39-2.46-2.88-4.87-4.33-7.3c-0.2-0.33-0.41-0.66-0.62-0.99C287.05,61.8,286.98,61.82,286.91,61.85z"/>
<path class="st0" d="M181.84,43.19c0-1.84,0-3.67,0-5.51c0-0.47,0-0.92,0.65-0.9c1.75,0.05,3.52-0.16,5.25,0.22
	c1.88,0.41,2.82,1.43,2.99,3.36c0.17,1.99,0.17,3.99-0.01,5.97c-0.16,1.75-1.32,2.92-3.06,3.15c-1.63,0.22-3.27,0.12-4.9,0.14
	c-0.76,0.01-0.93-0.38-0.92-1.06C181.86,46.79,181.84,44.99,181.84,43.19z M188.59,43.27c0.01,0,0.02,0,0.02,0
	c0-0.76,0.04-1.51-0.01-2.27c-0.11-1.6-0.76-2.27-2.36-2.47c-0.47-0.06-0.96,0.01-1.43-0.03c-0.71-0.07-0.87,0.28-0.86,0.92
	c0.03,2.11,0.01,4.22,0.01,6.33c0,2.24,0,2.24,2.29,2.08c1.56-0.11,2.2-0.72,2.33-2.29C188.64,44.79,188.59,44.03,188.59,43.27z"/>
<path class="st0" d="M211.83,64.25c0-1.76,0.01-3.51-0.01-5.27c-0.01-0.6,0.09-1.02,0.84-0.98c1.55,0.07,3.11-0.1,4.67,0.11
	c1.97,0.27,3.07,1.17,3.43,2.8c0.37,1.69-0.17,2.89-1.91,3.95c-0.53,0.32-0.37,0.57-0.18,0.94c0.69,1.39,1.34,2.8,2.04,4.19
	c0.32,0.63,0.2,0.79-0.51,0.85c-1.04,0.08-1.7-0.18-2.08-1.24c-0.42-1.15-1.1-2.21-1.55-3.36c-0.44-1.11-1.33-0.66-2.03-0.67
	c-0.82-0.01-0.41,0.73-0.43,1.11c-0.06,1.03-0.05,2.08-0.01,3.11c0.02,0.74-0.19,1.06-1.02,1.05c-0.82-0.01-1.28-0.15-1.26-1.08
	C211.86,67.92,211.83,66.08,211.83,64.25z M214.09,61.62c0,2.14,0,2.14,1.51,2.14c2.19,0,3.03-0.54,3.05-1.97
	c0.02-1.49-1.03-2.1-3.34-2.2C213.32,59.51,214.37,60.96,214.09,61.62z"/>
<path class="st0" d="M232.23,64.54c0,1.15,0.11,2.32-0.03,3.46c-0.19,1.6-1.2,2.53-2.79,2.86c-1.44,0.3-2.86,0.26-4.25-0.21
	c-1.51-0.51-2.3-1.55-2.32-3.12c-0.03-1.91-0.04-3.83,0-5.74c0.06-2.48,1.37-3.79,3.87-3.93c0.56-0.03,1.12-0.03,1.67,0
	c2.5,0.14,3.87,1.56,3.93,4.04c0.02,0.88,0,1.76,0,2.63C232.3,64.54,232.26,64.54,232.23,64.54z M225,64.46c-0.01,0-0.02,0-0.03,0
	c0,0.84-0.03,1.68,0.01,2.51c0.07,1.41,0.99,2.19,2.58,2.22c1.63,0.03,2.46-0.55,2.54-2.03c0.09-1.83,0.09-3.67-0.01-5.5
	c-0.07-1.44-1.01-2.12-2.54-2.09c-1.54,0.03-2.42,0.73-2.53,2.13C224.94,62.62,225,63.54,225,64.46z"/>
<path class="st0" d="M106.69,45.77c0-2.63,0.02-5.25-0.01-7.88c-0.01-0.77,0.11-1.13,1.02-1.14c0.97-0.01,0.98,0.47,0.97,1.18
	c-0.02,3.47,0,6.95-0.03,10.42c0,0.43,0.37,1.17-0.45,1.25c-0.71,0.07-1.47,0.25-1.99-0.65c-1.48-2.59-3.04-5.14-4.57-7.71
	c-0.14-0.23-0.29-0.45-0.66-0.99c0,3-0.03,5.64,0.02,8.28c0.01,0.8-0.17,1.15-1.05,1.13c-0.79-0.02-1-0.32-0.99-1.07
	c0.03-3.51,0-7.03,0.03-10.54c0-0.42-0.28-1.12,0.37-1.2c0.73-0.1,1.59-0.34,2.11,0.61c0.74,1.36,1.57,2.68,2.36,4.02
	c0.87,1.46,1.73,2.93,2.6,4.39C106.51,45.83,106.6,45.8,106.69,45.77z"/>
<path class="st0" d="M127.85,64.32c0-1.76,0.03-3.52-0.01-5.27c-0.02-0.76,0.2-1.1,1.01-1.05c1.55,0.09,3.12-0.1,4.67,0.14
	c1.85,0.28,2.93,1.21,3.27,2.84c0.35,1.64-0.24,2.95-1.87,3.87c-0.5,0.28-0.48,0.48-0.27,0.9c0.71,1.43,1.38,2.87,2.1,4.3
	c0.29,0.57,0.21,0.76-0.46,0.79c-0.98,0.05-1.73-0.05-2.12-1.18c-0.38-1.12-1.02-2.16-1.54-3.24c-0.36-0.75-1.53-1.18-2.26-0.86
	c-0.36,0.16-0.26,0.45-0.26,0.71c-0.01,1.2-0.05,2.4,0.01,3.6c0.05,0.97-0.51,0.95-1.21,0.97c-0.75,0.02-1.09-0.18-1.07-1
	C127.88,67.99,127.85,66.15,127.85,64.32z M130.1,61.54c0,2.22,0,2.22,1.42,2.22c2.32,0,3.12-0.51,3.13-2
	c0.01-1.49-1.03-2.07-3.35-2.17C129.38,59.51,130.36,60.89,130.1,61.54z"/>
<path class="st0" d="M175.5,43.36c-0.05,1.07-0.04,2.15-0.15,3.22c-0.18,1.65-1.12,2.71-2.74,3.06c-1.25,0.27-2.55,0.27-3.8-0.02
	c-1.98-0.45-2.84-1.52-2.87-3.54c-0.03-1.91-0.03-3.83,0.04-5.74c0.09-2.15,1.15-3.25,3.27-3.6c0.79-0.13,1.57-0.19,2.38-0.07
	c2.61,0.39,3.69,1.54,3.83,4.18c0.04,0.84,0.01,1.67,0.01,2.51C175.47,43.36,175.48,43.36,175.5,43.36z M168.09,43.23
	c0,0.88-0.03,1.76,0.01,2.63c0.06,1.32,0.98,2.1,2.51,2.18c1.46,0.08,2.42-0.59,2.56-1.91c0.2-1.91,0.2-3.83,0.01-5.73
	c-0.15-1.47-0.99-2.03-2.73-1.97c-1.47,0.05-2.27,0.76-2.34,2.16C168.06,41.47,168.1,42.35,168.09,43.23z"/>
<path class="st0" d="M242.51,43.18c0-1.84,0.01-3.68,0-5.51c0-0.48,0.02-0.9,0.66-0.87c1.83,0.06,3.68-0.19,5.5,0.25
	c1.59,0.38,2.57,1.39,2.75,2.79c0.23,1.78-0.31,3.02-1.82,3.8c-0.55,0.28-0.57,0.47-0.32,0.95c0.69,1.35,1.3,2.73,2.02,4.07
	c0.45,0.85,0.15,0.99-0.66,1.01c-0.84,0.02-1.41-0.12-1.76-1.03c-0.49-1.26-1.22-2.42-1.73-3.67c-0.46-1.12-1.35-0.66-2.05-0.64
	c-0.75,0.02-0.38,0.75-0.4,1.16c-0.05,1.12-0.06,2.24,0,3.36c0.05,0.92-0.55,0.8-1.1,0.8c-0.56,0.01-1.12,0.08-1.1-0.82
	C242.55,46.94,242.51,45.06,242.51,43.18z M244.68,40.49c0.03,2.33-0.3,2.07,1.44,2.09c2.35,0.02,3.11-0.48,3.14-1.97
	c0.03-1.5-0.9-2.14-3.17-2.13C244.43,38.49,244.71,38.26,244.68,40.49z"/>
<path class="st0" d="M283.27,43.31c0,1,0.06,2-0.01,2.99c-0.15,1.88-1.21,3.09-2.98,3.39c-1.18,0.2-2.39,0.21-3.57-0.05
	c-2.01-0.44-2.95-1.56-2.94-3.62c0.01-2.07-0.19-4.15,0.13-6.21c0.28-1.82,1.22-2.74,3.03-3.04c0.55-0.09,1.11-0.18,1.66-0.17
	c3.22,0.02,4.68,1.47,4.73,4.68c0.01,0.68,0,1.36,0,2.04C283.3,43.31,283.29,43.31,283.27,43.31z M281.1,43.29
	C281.1,43.29,281.1,43.29,281.1,43.29c0.01-0.8,0.03-1.6,0-2.4c-0.05-1.62-0.8-2.41-2.31-2.46c-1.92-0.06-2.8,0.61-2.88,2.38
	c-0.08,1.63-0.07,3.28-0.02,4.91c0.05,1.46,1.06,2.29,2.66,2.32c1.56,0.03,2.43-0.71,2.54-2.24
	C281.15,44.97,281.1,44.13,281.1,43.29z"/>
<path class="st0" d="M125.62,64.53c0,0.76,0.03,1.52-0.01,2.27c-0.03,0.55-0.07,1.12-0.22,1.65c-0.53,1.95-2.52,2.89-5.31,2.55
	c-2.7-0.33-3.93-1.39-3.99-3.56c-0.05-1.87-0.06-3.75,0-5.62c0.09-2.54,1.44-3.84,3.99-3.96c0.6-0.03,1.2-0.02,1.79,0.03
	c2.28,0.19,3.63,1.61,3.73,3.89C125.65,62.69,125.62,63.61,125.62,64.53z M118.23,64.48c0,0-0.01,0-0.01,0c0,0.76-0.02,1.52,0,2.28
	c0.04,1.58,0.94,2.41,2.62,2.44c1.68,0.03,2.52-0.65,2.59-2.28c0.07-1.63,0.06-3.28,0-4.91c-0.06-1.61-0.93-2.42-2.5-2.43
	c-1.68-0.02-2.59,0.76-2.69,2.38C118.18,62.79,118.23,63.64,118.23,64.48z"/>
<path class="st0" d="M202.24,43.3c0,1,0.03,2-0.01,2.99c-0.07,1.77-1.1,3.02-2.84,3.37c-1.22,0.24-2.47,0.24-3.69-0.02
	c-2.02-0.44-2.9-1.56-2.91-3.63c-0.01-1.75-0.03-3.51,0-5.26c0.05-2.55,1.09-3.69,3.59-4.07c0.97-0.15,1.91-0.08,2.85,0.12
	c1.89,0.41,2.94,1.69,3,3.63C202.27,41.39,202.25,42.35,202.24,43.3C202.25,43.3,202.24,43.3,202.24,43.3z M200.06,43.32
	C200.06,43.32,200.06,43.32,200.06,43.32c-0.01-0.96,0.04-1.92-0.02-2.87c-0.08-1.26-0.83-1.93-2.1-2c-1.76-0.1-2.76,0.43-2.93,1.76
	c-0.25,1.98-0.23,3.99-0.03,5.97c0.13,1.23,1.29,1.94,2.78,1.88c1.41-0.06,2.2-0.75,2.28-2.09
	C200.11,45.07,200.06,44.19,200.06,43.32z"/>
<path class="st0" d="M282.59,64.51c0,0.8,0.04,1.6-0.01,2.39c-0.03,0.59-0.1,1.2-0.28,1.76c-0.58,1.75-2.52,2.62-5.12,2.36
	c-2.63-0.27-3.89-1.18-4.06-3.23c-0.19-2.3-0.24-4.62,0.08-6.92c0.21-1.48,1.07-2.44,2.56-2.81c1.26-0.32,2.54-0.33,3.79-0.06
	c1.85,0.4,2.88,1.61,3.01,3.52c0.07,0.99,0.01,1.99,0.01,2.99C282.58,64.51,282.59,64.51,282.59,64.51z M280.39,64.45
	c0.01,0,0.02,0,0.03,0c0-0.76,0.03-1.52-0.01-2.28c-0.07-1.76-0.94-2.61-2.6-2.59c-1.72,0.02-2.57,0.83-2.61,2.58
	c-0.04,1.56-0.03,3.12,0,4.67c0.03,1.46,0.91,2.3,2.44,2.37c1.73,0.08,2.58-0.54,2.73-2.12C280.46,66.21,280.39,65.32,280.39,64.45z
	"/>
<path class="st0" d="M184.48,64.43c0.05-1.08-0.11-2.36,0.16-3.62c0.1-0.47,0.24-0.92,0.5-1.33c0.93-1.44,3.38-2.08,5.8-1.51
	c1.84,0.43,2.94,1.59,3.04,3.51c0.11,1.99,0.11,3.99,0,5.98c-0.12,2.04-1.18,3.04-3.18,3.45c-1.21,0.24-2.39,0.15-3.56-0.11
	c-1.75-0.39-2.68-1.58-2.76-3.42C184.45,66.46,184.48,65.54,184.48,64.43z M191.84,64.42c0-0.76,0.02-1.52,0-2.28
	c-0.05-1.71-0.86-2.54-2.49-2.56c-1.73-0.02-2.63,0.75-2.7,2.48c-0.07,1.59-0.07,3.2-0.02,4.79c0.05,1.55,1.02,2.34,2.72,2.34
	c1.61,0,2.39-0.69,2.48-2.26C191.87,66.1,191.84,65.26,191.84,64.42z"/>
<path class="st0" d="M264.8,43.49c0,0.72-0.02,1.44,0,2.15c0.06,2.18,2.17,3.36,4.08,2.3c0.7-0.39,1.28-3.01,0.78-3.63
	c-0.29-0.35-0.76-0.25-1.12-0.25c-0.7,0.01-0.62-0.4-0.64-0.85c-0.03-0.51,0.14-0.76,0.67-0.67c0.04,0.01,0.09-0.01,0.12,0
	c1.01,0.44,2.81-0.99,3.08,0.81c0.62,4.11-0.41,6.04-2.98,6.36c-0.94,0.12-1.92,0.1-2.86-0.02c-2.01-0.26-3.16-1.43-3.31-3.47
	c-0.15-2.07-0.19-4.14,0.05-6.21c0.19-1.57,1.06-2.63,2.61-3.08c1.74-0.5,3.47-0.48,5.18,0.12c0.57,0.2,1.15,0.43,0.83,1.28
	c-0.32,0.84-0.78,0.64-1.4,0.36c-1.05-0.47-2.18-0.44-3.29-0.23c-1.15,0.23-1.65,1.07-1.74,2.15c-0.07,0.95-0.02,1.91-0.02,2.87
	C264.82,43.49,264.81,43.49,264.8,43.49z"/>
<path class="st0" d="M231.82,43.23c0-1.8,0.04-3.6-0.02-5.39c-0.03-0.85,0.28-1.12,1.1-1.07c1.63,0.1,3.28-0.14,4.9,0.23
	c2.11,0.47,3.1,1.85,2.99,4.23c-0.09,2.11-1.3,3.48-3.34,3.72c-0.87,0.1-1.75,0.13-2.63,0.12c-0.61-0.01-0.86,0.17-0.83,0.81
	c0.04,0.96-0.03,1.92,0.02,2.88c0.05,0.95-0.55,0.87-1.17,0.89c-0.64,0.01-1.06-0.07-1.04-0.89
	C231.86,46.91,231.82,45.07,231.82,43.23z M234.01,40.82c0,0.6,0,1.19,0,1.79c0,0.23-0.03,0.48,0.21,0.64
	c0.56,0.38,3.38-0.08,3.83-0.63c0.64-0.77,0.72-2.3,0.16-3.14c-0.59-0.87-2.35-1.43-3.72-0.97c-1.04,0.36-0.24,1.39-0.48,2.07
	C233.99,40.65,234.01,40.74,234.01,40.82z"/>
<path class="st0" d="M154.25,41.96c0,1.32,0.02,2.63,0,3.95c-0.05,2.4-1.39,3.76-3.8,3.87c-0.96,0.04-1.92,0.06-2.83-0.32
	c-1.42-0.59-2.27-1.63-2.29-3.2c-0.03-2.87,0.02-5.75-0.03-8.62c-0.01-0.84,0.4-0.87,1.03-0.87c0.69,0,1.14,0.08,1.13,0.95
	c-0.04,2.55-0.04,5.11,0,7.66c0.02,1.83,1.17,2.86,2.8,2.61c1.19-0.19,1.8-0.9,1.81-2.28c0.03-2.59,0.04-5.19-0.01-7.78
	c-0.02-0.88,0.24-1.18,1.15-1.18c0.89,0,1.08,0.34,1.06,1.14C154.22,39.25,154.25,40.61,154.25,41.96z"/>
<path class="st0" d="M301.18,67.93c-0.04,0-0.08,0-0.12,0c-2.07,0-2.12-0.01-2.68,1.95c-0.25,0.86-0.72,0.98-1.48,0.95
	c-0.54-0.03-0.74-0.19-0.58-0.72c1.18-3.84,2.35-7.68,3.54-11.52c0.3-0.97,1.13-0.47,1.73-0.58c0.7-0.13,0.98,0.28,1.16,0.89
	c0.78,2.63,1.59,5.25,2.39,7.87c0.3,0.99,0.63,1.97,0.9,2.96c0.09,0.34,0.43,0.94-0.11,1.01c-0.63,0.08-1.44,0.43-1.96-0.32
	c-0.11-0.16-0.12-0.38-0.18-0.57C303.18,67.93,303.18,67.93,301.18,67.93z M301.2,61.1c-0.08,0.01-0.16,0.02-0.24,0.03
	c-0.43,1.44-0.87,2.87-1.28,4.31c-0.07,0.24-0.36,0.73,0.07,0.78c0.86,0.11,1.74,0.06,2.61,0.03c0.38-0.01,0.22-0.34,0.17-0.54
	C302.09,64.17,301.64,62.64,301.2,61.1z"/>
<path class="st0" d="M181.82,70.85c-0.65,0.19-0.95-0.3-1.17-1.05c-0.55-1.87-0.58-1.86-2.52-1.86c-0.04,0-0.08,0-0.12,0
	c-2.11,0-2.19-0.02-2.75,2.01c-0.31,1.11-1.06,0.88-1.77,0.84c-0.52-0.03-0.33-0.46-0.24-0.73c1.16-3.8,2.34-7.6,3.48-11.41
	c0.24-0.79,0.81-0.64,1.34-0.63c0.56,0.01,1.23-0.22,1.48,0.61c1.15,3.81,2.31,7.61,3.47,11.41
	C183.34,71.06,182.54,70.75,181.82,70.85z M178.09,61.1c-0.08,0-0.15,0-0.23,0c-0.45,1.53-0.89,3.07-1.35,4.6
	c-0.15,0.5,0.07,0.68,0.51,0.58c0.81-0.18,1.74,0.44,2.45-0.35c0.03-0.03-0.03-0.15-0.05-0.23
	C178.98,64.16,178.53,62.63,178.09,61.1z"/>
<path class="st0" d="M157.09,67.93c-0.08,0-0.16,0-0.24,0c-1.82,0-1.82,0-2.37,1.76c-0.15,0.49-0.11,1.11-0.94,1.13
	c-1.22,0.03-1.33-0.04-0.96-1.22c1.07-3.5,2.18-6.98,3.19-10.49c0.27-0.93,0.73-1.14,1.61-1.14c0.85,0,1.28,0.23,1.53,1.09
	c1.03,3.55,2.14,7.08,3.2,10.62c0.1,0.34,0.58,0.97-0.14,1.05c-0.62,0.07-1.44,0.48-1.92-0.38c-0.08-0.13-0.08-0.31-0.13-0.46
	C159.26,67.93,159.26,67.93,157.09,67.93z M155.54,66.23c1.13,0,2.14,0,3.23,0c-0.52-1.79-1.02-3.52-1.61-5.52
	C156.58,62.7,156.07,64.44,155.54,66.23z"/>
<path class="st0" d="M201,64.37c0-1.79,0.05-3.59-0.02-5.38c-0.03-0.83,0.27-1.03,1.02-1c1.55,0.07,3.11-0.09,4.66,0.14
	c2.05,0.31,3.2,1.58,3.27,3.61c0.09,2.52-0.85,3.85-2.99,4.35c-0.99,0.23-1.99,0.17-2.98,0.15c-0.63-0.02-0.84,0.19-0.8,0.82
	c0.05,0.83-0.03,1.68,0.02,2.51c0.06,0.86-0.1,1.29-1.14,1.28c-1,0-1.08-0.42-1.06-1.22C201.03,67.88,201,66.13,201,64.37z
	 M203.17,62.15c0,2.62,0.16,2.77,2.58,2.39c1.46-0.23,2.15-1.25,1.97-2.89c-0.17-1.47-1.36-2.13-3.63-2.03
	c-1.68,0.07-0.61,1.37-0.91,2.06C203.12,61.81,203.17,61.99,203.17,62.15z"/>
<path class="st0" d="M94.32,64.37c0-1.8,0.02-3.6-0.01-5.39c-0.01-0.68,0.12-1.02,0.91-0.99c1.8,0.05,3.6,0.05,5.4,0
	c0.72-0.02,0.85,0.25,0.86,0.9c0.01,0.72-0.35,0.75-0.89,0.74c-1.04-0.02-2.08,0.03-3.12-0.02c-0.78-0.04-1.13,0.15-1.12,1.04
	c0.02,2.63-0.02,2.63,2.62,2.63c0.28,0,0.56-0.01,0.84,0c0.41,0.02,0.94-0.15,0.88,0.6c-0.05,0.6-0.13,1.12-0.93,1.1
	c-0.84-0.02-1.68,0.03-2.52-0.01c-0.69-0.04-0.92,0.24-0.88,0.91c0.05,0.76,0.06,1.52,0,2.28c-0.06,0.77,0.31,0.97,0.99,0.96
	c1.2-0.02,2.4,0.04,3.6-0.02c0.71-0.04,0.76,0.3,0.76,0.85c0,0.56-0.08,0.89-0.77,0.87c-1.92-0.04-3.84-0.04-5.76,0
	c-0.72,0.01-0.88-0.3-0.87-0.93C94.34,68.05,94.32,66.21,94.32,64.37z"/>
<path class="st0" d="M113.63,49.78c-0.78,0.03-1.52-0.11-2.27-0.28c-0.82-0.18-0.97-0.66-0.84-1.4c0.11-0.62,0.31-0.78,0.95-0.53
	c1.25,0.49,2.55,0.61,3.87,0.28c0.7-0.18,1.28-0.49,1.43-1.26c0.16-0.83-0.14-1.5-0.86-1.94c-0.44-0.27-0.92-0.47-1.38-0.7
	c-0.68-0.34-1.39-0.62-2.02-1.02c-1.25-0.8-1.84-1.97-1.61-3.46c0.24-1.56,1.33-2.29,2.73-2.65c1.34-0.34,2.69-0.24,4.04-0.02
	c0.63,0.1,1.04,0.3,0.85,1.09c-0.17,0.7-0.42,0.89-1.16,0.68c-0.88-0.25-1.81-0.29-2.73-0.15c-0.71,0.11-1.32,0.37-1.48,1.17
	c-0.17,0.81,0.17,1.4,0.86,1.8c0.41,0.24,0.85,0.42,1.28,0.64c0.68,0.34,1.39,0.61,2.02,1.02c1.46,0.95,2.07,2.37,1.75,3.88
	c-0.32,1.53-1.4,2.51-3.19,2.78C115.13,49.81,114.37,49.97,113.63,49.78z"/>
<path class="st0" d="M263.3,57.82c0.52,0.04,1.16,0.06,1.79,0.17c0.57,0.1,1.08,0.25,0.84,1.09c-0.2,0.71-0.54,0.9-1.21,0.69
	c-0.85-0.27-1.73-0.27-2.61-0.18c-0.75,0.08-1.42,0.35-1.59,1.2c-0.18,0.86,0.23,1.48,0.97,1.86c0.99,0.51,2.02,0.94,3,1.47
	c0.9,0.49,1.56,1.21,1.87,2.23c0.55,1.87-0.24,3.58-2.07,4.26c-1.86,0.69-3.75,0.54-5.65,0.06c-0.98-0.25-0.86-0.91-0.68-1.58
	c0.21-0.8,0.72-0.31,1.13-0.2c1.25,0.34,2.5,0.49,3.77,0.12c0.65-0.19,1.16-0.52,1.29-1.25c0.14-0.79-0.14-1.4-0.78-1.87
	c-0.82-0.59-1.8-0.84-2.68-1.29c-1.06-0.54-1.99-1.2-2.32-2.42c-0.58-2.11,0.67-3.88,3.02-4.24
	C261.98,57.83,262.58,57.85,263.3,57.82z"/>
<path class="st0" d="M253.21,57.81c0.52,0.05,1.16,0.1,1.79,0.18c0.67,0.09,0.96,0.41,0.78,1.15c-0.16,0.7-0.55,0.81-1.13,0.64
	c-0.86-0.26-1.73-0.29-2.61-0.19c-0.74,0.08-1.44,0.29-1.61,1.16c-0.17,0.85,0.16,1.5,0.92,1.89c0.56,0.29,1.16,0.52,1.74,0.79
	c0.88,0.4,1.72,0.84,2.38,1.56c1.68,1.85,1.05,4.73-1.29,5.61c-1.9,0.71-3.84,0.56-5.77,0.03c-0.94-0.26-0.71-0.95-0.57-1.54
	c0.19-0.81,0.73-0.31,1.13-0.2c1.25,0.34,2.5,0.48,3.77,0.12c0.66-0.18,1.17-0.52,1.29-1.25c0.12-0.73-0.1-1.34-0.7-1.8
	c-0.71-0.54-1.55-0.8-2.35-1.16c-1.14-0.52-2.23-1.14-2.68-2.41c-0.74-2.12,0.5-4.04,2.86-4.45
	C251.81,57.83,252.46,57.85,253.21,57.81z"/>
<path class="st0" d="M208.71,43.14c0-1.8,0.03-3.6-0.01-5.39c-0.02-0.71,0.17-1,0.94-0.98c1.8,0.05,3.6,0.03,5.4,0.01
	c0.58-0.01,0.88,0.11,0.87,0.79c-0.01,0.65-0.17,0.95-0.88,0.92c-1.16-0.04-2.32,0.01-3.48-0.02c-0.57-0.02-0.73,0.17-0.76,0.74
	c-0.15,2.86-0.17,2.86,2.71,2.86c0.28,0,0.56,0,0.84,0c0.42,0,0.88,0,0.75,0.61c-0.1,0.45,0.07,1.12-0.77,1.09
	c-0.88-0.03-1.76,0.03-2.64-0.02c-0.7-0.04-0.87,0.24-0.89,0.9c-0.11,3.22-0.12,3.22,3.08,3.22c0.44,0,0.88,0.02,1.32-0.01
	c0.61-0.04,0.95,0.08,0.96,0.83c0.01,0.76-0.27,0.97-0.97,0.96c-1.84-0.02-3.68-0.02-5.52,0c-0.71,0.01-0.99-0.24-0.97-0.98
	C208.74,46.82,208.71,44.98,208.71,43.14z"/>
<path class="st0" d="M168.85,71.12c0.05,0.4,0.34,0.37,0.55,0.45c0.55,0.23,0.76,0.68,0.77,1.24c0,0.62-0.3,1.1-0.87,1.3
	c-0.8,0.28-1.63,0.4-2.41-0.11c-0.27-0.17-0.39-0.42-0.2-0.7c0.15-0.22,0.34-0.29,0.61-0.11c0.26,0.18,0.57,0.29,0.9,0.24
	c0.37-0.06,0.73-0.17,0.74-0.63c0.01-0.4-0.25-0.54-0.63-0.56c-0.25-0.01-0.69,0.1-0.63-0.31c0.13-1.03-0.57-0.98-1.24-1.13
	c-1.91-0.45-2.9-1.72-2.91-3.69c-0.01-1.72-0.02-3.43,0-5.15c0.03-2.23,1.04-3.53,3.21-3.96c1.45-0.29,2.93-0.31,4.38,0.15
	c0.6,0.19,0.82,0.54,0.58,1.17c-0.23,0.61-0.55,0.77-1.16,0.47c-0.66-0.32-1.4-0.29-2.12-0.25c-1.85,0.1-2.67,0.93-2.72,2.78
	c-0.03,1.4-0.02,2.79-0.01,4.19c0.01,2,0.84,2.82,2.84,2.84c0.73,0.01,1.43-0.12,2.1-0.39c0.43-0.17,0.85-0.34,1,0.33
	c0.12,0.55,0.31,1.14-0.51,1.32C170.37,70.79,169.61,70.95,168.85,71.12z"/>
<path class="st0" d="M253.75,43.1c0-1.76,0.04-3.52-0.02-5.27c-0.03-0.86,0.28-1.09,1.1-1.06c1.68,0.06,3.36,0.02,5.04,0.01
	c0.58,0,1.1-0.06,1.12,0.81c0.02,0.95-0.55,0.89-1.18,0.88c-1.04-0.01-2.08,0.03-3.12-0.01c-0.63-0.02-0.92,0.12-0.94,0.84
	c-0.11,2.75-0.13,2.75,2.63,2.75c0.28,0,0.56-0.03,0.84,0.01c0.37,0.05,0.98-0.25,0.9,0.55c-0.06,0.59,0.01,1.23-0.94,1.15
	c-0.79-0.07-1.6,0.03-2.4-0.03c-0.76-0.06-0.93,0.27-0.94,0.97c-0.07,3.15-0.09,3.15,3.05,3.15c0.48,0,0.96,0.03,1.44-0.01
	c0.68-0.05,0.89,0.22,0.9,0.9c0.01,0.72-0.32,0.89-0.94,0.89c-1.88-0.01-3.76-0.02-5.64,0.01c-0.77,0.01-0.93-0.35-0.91-1.03
	C253.77,46.77,253.75,44.94,253.75,43.1z"/>
<path class="st0" d="M234.59,64.32c0-1.76,0.03-3.51-0.01-5.27c-0.02-0.73,0.15-1.1,0.99-1.07c1.72,0.05,3.44,0.03,5.15,0.01
	c0.57-0.01,0.86,0.11,0.86,0.79c0,0.67-0.21,0.94-0.88,0.92c-1.08-0.02-2.16,0.02-3.24-0.01c-0.56-0.02-0.73,0.17-0.76,0.75
	c-0.17,3.22-0.19,3.21,3.06,3.25c0.46,0.01,1.15-0.34,1.15,0.69c0,0.94-0.45,0.99-1.18,1.01c-0.97,0.03-2.22-0.46-2.84,0.25
	c-0.56,0.64-0.12,1.84-0.16,2.79c-0.02,0.4-0.04,0.8,0,1.2c0.09,0.82-0.08,1.22-1.07,1.21c-1-0.01-1.1-0.46-1.08-1.25
	C234.62,67.84,234.59,66.08,234.59,64.32z"/>
<path class="st0" d="M107.41,64.32c0-1.76,0.03-3.51-0.01-5.27c-0.02-0.74,0.16-1.09,0.99-1.07c1.72,0.05,3.44,0.03,5.15,0.01
	c0.57-0.01,0.86,0.11,0.86,0.79c0,0.67-0.21,0.94-0.88,0.92c-1.08-0.02-2.16,0.02-3.24-0.01c-0.56-0.02-0.73,0.17-0.76,0.75
	c-0.17,3.22-0.19,3.21,3.05,3.25c0.48,0.01,1.15-0.31,1.15,0.7c0,0.93-0.46,1.01-1.2,1c-0.95-0.01-2.2-0.42-2.78,0.16
	c-0.63,0.64-0.15,1.9-0.21,2.89c-0.02,0.4-0.05,0.81,0.01,1.2c0.15,0.98-0.28,1.23-1.2,1.19c-0.75-0.03-0.96-0.3-0.95-1
	C107.43,68,107.41,66.16,107.41,64.32z"/>
<path class="st0" d="M159.24,44.06c0-1.48-0.07-2.96,0.02-4.43c0.06-1.01-0.32-1.27-1.23-1.17c-0.47,0.05-0.96-0.01-1.44,0.01
	c-0.56,0.02-0.99,0.02-0.99-0.78c0-0.78,0.33-0.93,1.01-0.92c2.48,0.03,4.95,0.02,7.43,0c0.63-0.01,0.94,0.12,0.94,0.85
	c0,0.7-0.24,0.85-0.89,0.87c-0.89,0.03-2.08-0.47-2.59,0.25c-0.42,0.59-0.13,1.69-0.14,2.57c-0.01,2.43-0.05,4.87,0.02,7.3
	c0.03,0.98-0.46,1-1.17,1.02c-0.76,0.02-1.05-0.23-1.01-1.03C159.29,47.1,159.24,45.58,159.24,44.06z"/>
<path class="st0" d="M123.77,43.98c0-1.52-0.03-3.03,0.01-4.55c0.02-0.7-0.15-1.04-0.93-0.97c-0.59,0.06-1.2-0.02-1.79,0.02
	c-0.62,0.05-0.84-0.15-0.84-0.79c0.01-0.65,0.19-0.92,0.89-0.92c2.51,0.03,5.03,0.03,7.55,0c0.71-0.01,0.84,0.26,0.87,0.91
	c0.03,0.77-0.33,0.8-0.93,0.8c-2.66,0.03-2.66,0.04-2.66,2.68c0,2.35-0.01,4.71,0.01,7.06c0.01,0.8,0.05,1.46-1.13,1.44
	c-1.11-0.02-1.07-0.61-1.05-1.38C123.79,46.85,123.77,45.42,123.77,43.98z"/>
<path class="st0" d="M138.13,43.98c0-1.36-0.08-2.72,0.02-4.07c0.08-1.12-0.2-1.65-1.41-1.45c-0.43,0.07-0.88-0.01-1.32,0.02
	c-0.56,0.04-0.9-0.07-0.88-0.76c0.01-0.64,0.16-0.95,0.87-0.94c2.56,0.03,5.11,0.04,7.67,0c0.76-0.01,0.81,0.34,0.83,0.94
	c0.03,0.69-0.29,0.77-0.86,0.77c-0.87,0.01-2-0.39-2.54,0.16c-0.63,0.65-0.19,1.82-0.21,2.76c-0.04,2.31-0.04,4.63,0,6.94
	c0.02,0.85-0.1,1.31-1.12,1.31c-1.09,0-1.09-0.59-1.07-1.37C138.15,46.86,138.13,45.42,138.13,43.98z"/>
<path class="st0" d="M94.32,43.18c0-1.83,0.03-3.66-0.02-5.49c-0.02-0.79,0.33-0.95,1-0.91c0.59,0.04,1.21-0.13,1.2,0.84
	c-0.03,3.74-0.02,7.48,0,11.22c0.01,0.89-0.58,0.78-1.13,0.8c-0.59,0.02-1.1,0.01-1.08-0.85C94.36,46.92,94.32,45.05,94.32,43.18z"
	/>
<path class="st0" d="M243.58,64.37c0-1.84,0.04-3.68-0.02-5.51c-0.03-0.85,0.41-0.88,1.04-0.86c0.61,0.02,1.19-0.09,1.18,0.87
	c-0.04,3.71-0.03,7.43,0,11.15c0.01,0.89-0.53,0.8-1.11,0.81c-0.58,0-1.12,0.07-1.1-0.81C243.61,68.12,243.58,66.24,243.58,64.37z"
	/>
<path class="st0" d="M270.8,64.36c0,1.83-0.04,3.66,0.02,5.49c0.03,0.85-0.33,0.98-1.06,0.97c-0.75-0.01-1.16-0.09-1.15-1.01
	c0.05-3.62,0.05-7.25,0-10.87c-0.01-0.87,0.36-0.97,1.07-0.96c0.72,0,1.2,0.03,1.15,1C270.74,60.77,270.8,62.57,270.8,64.36z"/>
<path class="st0" d="M130.97,43.15c0-1.83,0.04-3.67-0.02-5.5c-0.03-0.97,0.55-0.85,1.16-0.87c0.61-0.02,1.06-0.01,1.05,0.84
	c-0.04,3.71-0.04,7.41,0,11.12c0.01,0.82-0.4,0.92-1.03,0.89c-0.59-0.02-1.21,0.1-1.18-0.87C131,46.9,130.97,45.02,130.97,43.15z"/>
<path class="st0" d="M179.33,56.93c-0.38,0.03-0.7-0.15-1-0.33c-0.76-0.45-1.49-1.03-2.27-0.01c-0.22,0.29-0.5,0.04-0.74-0.08
	c-0.35-0.18-0.26-0.43-0.15-0.7c0.48-1.16,1.63-1.6,2.73-1.02c0.83,0.44,1.63,1.16,2.45-0.03c0.21-0.3,0.51,0.02,0.76,0.05
	c0.24,0.04,0.26,0.25,0.22,0.47C181.22,55.95,180.04,56.94,179.33,56.93z"/>
<path class="st0" d="M41.18,61.28c-0.06-0.25,0.01-0.45,0.22-0.6C41.46,60.92,41.38,61.12,41.18,61.28z"/>
</svg>
