<?xml version="1.0" encoding="UTF-8" standalone="no"?><!DOCTYPE svg PUBLIC "-//W3C//DTD SVG 1.1//EN" "http://www.w3.org/Graphics/SVG/1.1/DTD/svg11.dtd"><svg width="100%" height="100%" viewBox="0 0 112 42" version="1.1" xmlns="http://www.w3.org/2000/svg" xmlns:xlink="http://www.w3.org/1999/xlink" xml:space="preserve" xmlns:serif="http://www.serif.com/" style="fill-rule:evenodd;clip-rule:evenodd;stroke-linejoin:round;stroke-miterlimit:2;"><rect id="Artboard1" x="0" y="0" width="111.117" height="41.253" style="fill:none;"/><clipPath id="_clip1"><rect id="Asset-8" serif:id="Asset 8" x="14.322" y="7.715" width="82.473" height="25.822"/></clipPath><g clip-path="url(#_clip1)"><g id="Layer_1-2"><path d="M38.403,33.537l-9.439,-0.128c4.774,0.065 7.752,-2.312 7.072,-5.425l-5.264,-12.828c-0.115,-0.264 -0.199,-0.541 -0.25,-0.824c-0.681,-3.113 2.292,-5.49 7.072,-5.426l0.089,0l7.542,18.379c1.44,3.512 -1.626,6.32 -6.822,6.252Z" style="fill:#00803b;fill-rule:nonzero;"/><path d="M22.219,32.345l-7.542,-18.377c-1.44,-3.512 1.625,-6.321 6.823,-6.253l9.35,0.125c-4.774,-0.062 -7.753,2.315 -7.072,5.428c0.052,0.283 0.136,0.559 0.25,0.823l5.263,12.829c0.681,3.113 -2.297,5.495 -7.072,5.425Z" style="fill:#93bf1f;fill-rule:nonzero;"/><path d="M49.427,28.543l-0.161,0c-0.002,0.001 -0.003,0.001 -0.005,0.001c-0.017,0 -0.03,-0.014 -0.03,-0.031c0,-0.001 0,-0.003 0,-0.004l0,-2.093c0,-0.001 0,-0.003 0,-0.004c0,-0.017 0.013,-0.03 0.03,-0.03c0.002,0 0.003,0 0.005,0l0.161,0c0.002,0 0.003,0 0.005,0c0.016,0 0.03,0.013 0.03,0.03c0,0.001 0,0.003 -0.001,0.004l0,2.093c0.001,0.001 0.001,0.003 0.001,0.004c0,0.017 -0.014,0.031 -0.03,0.031c-0.002,0 -0.003,0 -0.005,-0.001Z" style="fill-rule:nonzero;"/><path d="M52.133,28.543l-0.149,0l-0.031,-0.016l-0.924,-1.695l-0.007,0l0.017,1.677c0.001,0.001 0.001,0.003 0.001,0.004c0,0.017 -0.014,0.031 -0.031,0.031c-0.001,0 -0.003,0 -0.004,-0.001l-0.162,0c-0.001,0.001 -0.003,0.001 -0.004,0.001c-0.017,0 -0.03,-0.014 -0.03,-0.031c0,-0.001 0,-0.003 0,-0.004l0,-2.093c0,-0.001 0,-0.003 0,-0.004c0,-0.017 0.013,-0.03 0.03,-0.03c0.001,0 0.003,0 0.004,0l0.147,0l0.032,0.018l0.927,1.704l0.007,0l-0.02,-1.688c-0.001,-0.001 -0.001,-0.003 -0.001,-0.004c0,-0.017 0.014,-0.03 0.03,-0.03c0.002,0 0.004,0 0.005,0l0.163,0c0.001,0 0.002,0 0.003,0c0.017,0 0.03,0.013 0.03,0.03c0,0.001 0,0.003 0,0.004l0,2.093c0,0.001 0,0.003 0,0.004c0,0.017 -0.013,0.031 -0.03,0.031c-0.001,0 -0.002,-0.001 -0.003,-0.001Z" style="fill-rule:nonzero;"/><path d="M54.621,28.424c-0.119,0.107 -0.277,0.162 -0.437,0.154l-0.105,0c-0.16,0.008 -0.317,-0.047 -0.436,-0.154c-0.11,-0.108 -0.168,-0.257 -0.162,-0.41l0,-1.106c-0.006,-0.153 0.052,-0.302 0.162,-0.409c0.119,-0.108 0.276,-0.163 0.436,-0.155l0.105,0c0.084,-0.001 0.167,0.013 0.247,0.041c0.07,0.026 0.134,0.065 0.189,0.116c0.053,0.05 0.095,0.11 0.122,0.178c0.029,0.073 0.044,0.151 0.043,0.229l0,1.106c0.007,0.154 -0.053,0.303 -0.164,0.41Zm-0.071,-1.519c0.001,-0.049 -0.009,-0.098 -0.029,-0.143c-0.018,-0.043 -0.045,-0.082 -0.078,-0.115c-0.034,-0.034 -0.074,-0.06 -0.118,-0.078c-0.046,-0.019 -0.095,-0.029 -0.146,-0.029l-0.104,0c-0.049,-0.001 -0.099,0.009 -0.145,0.027c-0.043,0.019 -0.083,0.045 -0.116,0.079c-0.034,0.033 -0.06,0.073 -0.079,0.116c-0.017,0.046 -0.027,0.094 -0.027,0.143l0,1.109c0,0.05 0.01,0.1 0.03,0.146c0.018,0.043 0.045,0.082 0.078,0.116c0.069,0.067 0.162,0.104 0.259,0.104l0.104,0c0.05,0 0.099,-0.01 0.144,-0.029c0.044,-0.019 0.085,-0.046 0.118,-0.08c0.034,-0.033 0.061,-0.073 0.08,-0.116c0.02,-0.045 0.03,-0.094 0.029,-0.143l0,-1.107Z" style="fill-rule:nonzero;"/><path d="M56.739,28.519c-0.005,0.015 -0.019,0.025 -0.034,0.024l-0.143,0c-0.016,0.001 -0.03,-0.009 -0.034,-0.024l-0.633,-2.092l0,-0.009c-0.001,-0.001 -0.001,-0.003 0,-0.005c0,-0.021 0.012,-0.031 0.037,-0.031l0.165,0c0.021,0 0.032,0.008 0.034,0.024l0.504,1.75l0.017,0l0.484,-1.75c0,-0.016 0.014,-0.024 0.035,-0.024l0.165,0c0.025,0 0.038,0.01 0.038,0.031c0,0.002 0,0.004 0,0.005c-0.001,0.002 0,0 0,0.009l-0.635,2.092Z" style="fill-rule:nonzero;"/><path d="M59.619,28.508c0,0.002 0,0.003 0,0.005c0,0.02 -0.013,0.03 -0.038,0.03l-0.174,0c-0.02,0 -0.031,-0.007 -0.034,-0.024l-0.133,-0.474c0,-0.013 -0.013,-0.021 -0.034,-0.021l-0.646,0c-0.021,0 -0.033,0.008 -0.035,0.021l-0.134,0.474c0,0.017 -0.014,0.024 -0.034,0.024l-0.176,0c-0.025,0 -0.037,-0.01 -0.037,-0.03c-0.001,-0.002 -0.001,-0.003 0,-0.005c0.001,-0.002 0,0 0,-0.009l0.636,-2.093c0.005,-0.015 0.019,-0.024 0.034,-0.024l0.13,0c0.016,-0.001 0.03,0.009 0.035,0.024l0.637,2.093c0.002,0.005 0.002,0.008 0.003,0.009Zm-0.691,-1.607l-0.013,-0.043c0,-0.022 -0.013,-0.052 -0.025,-0.092l-0.013,0c-0.008,0.029 -0.015,0.053 -0.021,0.074c-0.006,0.022 -0.013,0.043 -0.018,0.061l-0.244,0.884l0,0.008c0,0.021 0.013,0.03 0.038,0.03l0.495,0c0.025,0 0.037,-0.009 0.037,-0.03c0.001,-0.002 0.001,-0.005 0,-0.007c-0.001,-0.002 -0.001,-0.005 0,-0.007l-0.236,-0.878Z" style="fill-rule:nonzero;"/><path d="M61.515,29.266c-0.063,0.056 -0.146,0.086 -0.231,0.082l-0.124,0c-0.001,0 -0.003,0 -0.004,0c-0.017,0 -0.031,-0.013 -0.031,-0.03c0,-0.001 0,-0.003 0.001,-0.004l0,-0.056c-0.001,-0.001 -0.001,-0.003 -0.001,-0.004c0,-0.017 0.014,-0.03 0.031,-0.03c0.001,0 0.003,0 0.004,0l0.124,0c0.045,0.002 0.088,-0.016 0.119,-0.048c0.03,-0.031 0.046,-0.073 0.046,-0.117l0,-0.031c0,-0.057 -0.015,-0.095 -0.043,-0.112c-0.039,-0.02 -0.08,-0.037 -0.122,-0.05c-0.025,-0.006 -0.037,-0.015 -0.037,-0.027l0.006,-0.02l0.113,-0.241l-0.034,0c-0.16,0.008 -0.317,-0.047 -0.437,-0.154c-0.109,-0.108 -0.168,-0.257 -0.161,-0.41l0,-1.106c-0.007,-0.153 0.051,-0.302 0.16,-0.409c0.119,-0.108 0.275,-0.164 0.435,-0.155l0.104,0c0.073,0 0.147,0.01 0.217,0.031c0.059,0.017 0.117,0.042 0.17,0.074c0.042,0.025 0.079,0.058 0.109,0.096c0.023,0.027 0.037,0.06 0.04,0.094c0,0.013 -0.007,0.021 -0.024,0.028l-0.144,0.072c-0.006,0.002 -0.012,0.002 -0.018,0c-0.009,-0.001 -0.018,-0.006 -0.024,-0.013l-0.074,-0.072c-0.023,-0.022 -0.047,-0.043 -0.074,-0.061c-0.024,-0.017 -0.051,-0.03 -0.08,-0.04c-0.031,-0.011 -0.065,-0.016 -0.098,-0.016l-0.104,0c-0.05,-0.001 -0.099,0.008 -0.145,0.027c-0.043,0.019 -0.082,0.045 -0.115,0.078c-0.033,0.034 -0.059,0.073 -0.077,0.117c-0.019,0.045 -0.028,0.094 -0.028,0.143l0,1.109c0,0.05 0.01,0.1 0.029,0.146c0.019,0.043 0.045,0.082 0.078,0.115c0.07,0.068 0.163,0.105 0.26,0.105l0.104,0c0.042,-0.001 0.083,-0.009 0.121,-0.024c0.038,-0.014 0.074,-0.035 0.104,-0.062c0.031,-0.027 0.059,-0.057 0.084,-0.089c0.017,-0.023 0.032,-0.035 0.043,-0.035c0.006,-0.002 0.012,-0.002 0.017,0l0.146,0.079c0.012,0.003 0.021,0.015 0.02,0.027c-0.002,0.03 -0.013,0.058 -0.03,0.082c-0.026,0.034 -0.056,0.065 -0.09,0.09c-0.044,0.033 -0.092,0.06 -0.143,0.081c-0.06,0.025 -0.125,0.041 -0.19,0.047l-0.086,0.175c-0.004,0.006 -0.007,0.013 -0.007,0.02c0.001,0.014 0.009,0.025 0.021,0.032c0.09,0.04 0.151,0.127 0.158,0.226l0,0.031c0.002,0.079 -0.03,0.155 -0.088,0.209Z" style="fill-rule:nonzero;"/><path d="M64.499,28.508c0.001,0.002 0.001,0.003 0,0.005c0,0.02 -0.012,0.03 -0.037,0.03l-0.175,0c-0.021,0 -0.033,-0.007 -0.035,-0.024l-0.134,-0.474c0,-0.013 -0.014,-0.021 -0.035,-0.021l-0.646,0c-0.02,0 -0.031,0.008 -0.034,0.021l-0.134,0.474c0,0.017 -0.013,0.024 -0.034,0.024l-0.175,0c-0.025,0 -0.039,-0.01 -0.039,-0.03c0,-0.002 0,-0.003 0,-0.005c0.001,-0.003 0.001,-0.006 0,-0.009l0.636,-2.093c0.005,-0.015 0.019,-0.025 0.035,-0.024l0.134,0c0.015,-0.001 0.029,0.009 0.034,0.024l0.636,2.093c0,0.003 0.001,0.006 0.003,0.009Zm-0.246,-2.576c-0.003,0.021 -0.011,0.041 -0.024,0.058c-0.018,0.028 -0.039,0.053 -0.063,0.076c-0.027,0.026 -0.057,0.047 -0.09,0.065c-0.032,0.018 -0.067,0.028 -0.104,0.028c-0.079,-0.005 -0.155,-0.036 -0.214,-0.09l-0.069,-0.045c-0.042,-0.03 -0.092,-0.047 -0.143,-0.051c-0.026,0 -0.051,0.005 -0.074,0.016c-0.021,0.008 -0.04,0.02 -0.057,0.034l-0.041,0.034c-0.007,0.008 -0.017,0.013 -0.027,0.015c-0.009,0.001 -0.017,-0.001 -0.024,-0.006l-0.035,-0.024c-0.008,-0.007 -0.013,-0.017 -0.014,-0.028c-0.002,-0.006 -0.002,-0.011 0,-0.017c0.08,-0.135 0.173,-0.203 0.278,-0.203c0.033,0 0.066,0.007 0.096,0.021c0.034,0.016 0.066,0.036 0.097,0.058l0.072,0.055c0.021,0.016 0.045,0.028 0.069,0.036c0.026,0.01 0.054,0.015 0.082,0.016c0.026,0 0.051,-0.006 0.075,-0.016c0.021,-0.009 0.042,-0.021 0.06,-0.036c0.018,-0.013 0.032,-0.026 0.043,-0.036c0.007,-0.008 0.017,-0.014 0.028,-0.016c0.009,0 0.017,0.002 0.024,0.008l0.031,0.024c0.014,0.011 0.024,0.019 0.024,0.024Zm-0.443,0.969c-0.005,-0.014 -0.009,-0.028 -0.012,-0.043c-0.005,-0.022 -0.015,-0.052 -0.026,-0.092l-0.014,0c-0.005,0.025 -0.012,0.05 -0.021,0.074c-0.006,0.022 -0.012,0.043 -0.016,0.061l-0.244,0.884c0.001,0.002 0.001,0.005 0,0.008c0,0.021 0.013,0.03 0.038,0.03l0.495,0c0.025,0 0.038,-0.009 0.038,-0.03c0,-0.002 0,-0.005 0,-0.007c0,-0.002 0,-0.005 0,-0.007l-0.238,-0.878Z" style="fill-rule:nonzero;"/><path d="M66.798,28.424c-0.12,0.107 -0.278,0.162 -0.438,0.154l-0.105,0c-0.16,0.008 -0.317,-0.047 -0.436,-0.154c-0.11,-0.108 -0.168,-0.257 -0.162,-0.41l0,-1.106c-0.006,-0.153 0.052,-0.302 0.162,-0.409c0.119,-0.108 0.276,-0.163 0.436,-0.155l0.105,0c0.084,-0.001 0.168,0.013 0.248,0.041c0.069,0.026 0.133,0.065 0.188,0.116c0.054,0.049 0.095,0.11 0.122,0.178c0.03,0.073 0.044,0.151 0.043,0.229l0,1.106c0.007,0.153 -0.053,0.302 -0.163,0.41Zm-0.066,-1.519c0,-0.049 -0.011,-0.098 -0.031,-0.143c-0.018,-0.043 -0.045,-0.082 -0.078,-0.115c-0.033,-0.034 -0.073,-0.06 -0.117,-0.078c-0.046,-0.019 -0.096,-0.029 -0.145,-0.029l-0.105,0c-0.097,-0.003 -0.192,0.035 -0.261,0.104c-0.034,0.034 -0.061,0.073 -0.078,0.117c-0.019,0.045 -0.029,0.094 -0.028,0.143l0,1.109c-0.001,0.097 0.037,0.191 0.104,0.261c0.07,0.067 0.163,0.105 0.26,0.105l0.105,0c0.049,0 0.098,-0.01 0.143,-0.029c0.044,-0.019 0.084,-0.046 0.118,-0.08c0.034,-0.033 0.06,-0.073 0.079,-0.116c0.02,-0.045 0.031,-0.094 0.031,-0.143l0.003,-1.106Z" style="fill-rule:nonzero;"/><path d="M71.01,28.543l-1.128,0c-0.001,0.001 -0.003,0.001 -0.004,0.001c-0.017,0 -0.031,-0.014 -0.031,-0.031c0,-0.001 0.001,-0.003 0.001,-0.004l0,-2.093c0,-0.001 -0.001,-0.003 -0.001,-0.004c0,-0.017 0.014,-0.03 0.031,-0.03c0.001,0 0.003,0 0.004,0l1.128,0c0.001,0 0.003,0 0.004,0c0.017,0 0.031,0.013 0.031,0.03c0,0.001 -0.001,0.003 -0.001,0.004l0,0.127c0,0.002 0.001,0.003 0.001,0.005c0,0.016 -0.014,0.03 -0.031,0.03c-0.001,0 -0.003,0 -0.004,0l-0.897,0c-0.002,0 -0.003,-0.001 -0.005,-0.001c-0.017,0 -0.03,0.014 -0.03,0.031c0,0.001 0,0.003 0,0.004l0,0.702c0,0.001 0,0.003 0,0.004c0,0.017 0.013,0.03 0.03,0.03c0.002,0 0.003,0 0.005,0l0.735,0c0.002,0 0.003,0 0.005,0c0.016,0 0.03,0.013 0.03,0.03c0,0.001 0,0.003 0,0.004l0,0.128c0,0.001 0,0.003 0,0.004c0,0.017 -0.014,0.03 -0.03,0.03c-0.002,0 -0.003,0 -0.005,0l-0.735,0c-0.002,0 -0.003,0 -0.005,0c-0.017,0 -0.03,0.013 -0.03,0.03c0,0.001 0,0.003 0,0.004l0,0.73c0,0.001 0,0.003 0,0.004c0,0.017 0.013,0.031 0.03,0.031c0.002,0 0.003,-0.001 0.005,-0.001l0.897,0c0.001,0 0.003,0 0.004,0c0.017,0 0.031,0.014 0.031,0.03c0,0.002 -0.001,0.003 -0.001,0.005l0,0.127c0.001,0.003 0.002,0.006 0.002,0.01c0,0.016 -0.014,0.03 -0.03,0.03c-0.002,0 -0.004,0 -0.006,-0.001Z" style="fill-rule:nonzero;"/><path d="M74.845,26.579l-0.417,0c-0.001,0 -0.003,-0.001 -0.004,-0.001c-0.017,0 -0.03,0.014 -0.03,0.031c0,0.001 0,0.003 0,0.004l0,1.897c0,0.002 0,0.003 0,0.005c0,0.016 -0.013,0.03 -0.03,0.03c-0.002,0 -0.003,0 -0.005,-0.001l-0.161,0c-0.002,0.001 -0.003,0.001 -0.005,0.001c-0.016,0 -0.03,-0.014 -0.03,-0.03c0,-0.002 0,-0.003 0.001,-0.005l0,-1.897c0,-0.001 0,-0.003 0,-0.004c0,-0.017 -0.014,-0.031 -0.03,-0.031c-0.002,0 -0.003,0.001 -0.005,0.001l-0.417,0c-0.001,0 -0.003,0 -0.004,0c-0.017,0 -0.03,-0.013 -0.03,-0.03c0,-0.002 0,-0.003 0,-0.005l0,-0.127c0,-0.001 0,-0.003 0,-0.004c0,-0.017 0.013,-0.03 0.03,-0.03c0.001,0 0.003,0 0.004,0l1.131,0c0.002,0 0.003,0 0.005,0c0.016,0 0.03,0.013 0.03,0.03c0,0.001 0,0.003 -0.001,0.004l0,0.127c0.001,0.002 0.001,0.003 0.001,0.005c0,0.016 -0.014,0.03 -0.03,0.03c-0.001,0 -0.002,0 -0.003,0Z" style="fill-rule:nonzero;"/><path d="M77.295,28.543l-1.126,0c-0.002,0.001 -0.003,0.001 -0.005,0.001c-0.016,0 -0.03,-0.014 -0.03,-0.031c0,-0.001 0,-0.003 0,-0.004l0,-2.093c0,-0.001 0,-0.003 0,-0.004c0,-0.017 0.014,-0.03 0.03,-0.03c0.002,0 0.003,0 0.005,0l1.126,0c0.002,0 0.003,0 0.005,0c0.016,0 0.03,0.013 0.03,0.03c0,0.001 0,0.003 0,0.004l0,0.127c0,0.002 0,0.003 0,0.005c0,0.016 -0.014,0.03 -0.03,0.03c-0.002,0 -0.003,0 -0.005,0l-0.896,0c-0.001,0 -0.003,-0.001 -0.004,-0.001c-0.017,0 -0.031,0.014 -0.031,0.031c0,0.001 0,0.003 0.001,0.004l0,0.702c-0.001,0.001 -0.001,0.003 -0.001,0.004c0,0.017 0.014,0.03 0.031,0.03c0.001,0 0.003,0 0.004,0l0.735,0c0.001,0 0.003,0 0.004,0c0.017,0 0.031,0.013 0.031,0.03c0,0.001 -0.001,0.003 -0.001,0.004l0,0.128c0,0.001 0.001,0.003 0.001,0.004c0,0.017 -0.014,0.03 -0.031,0.03c-0.001,0 -0.003,0 -0.004,0l-0.735,0c-0.001,0 -0.003,0 -0.004,0c-0.017,0 -0.031,0.013 -0.031,0.03c0,0.001 0,0.003 0.001,0.004l0,0.73c-0.001,0.001 -0.001,0.003 -0.001,0.004c0,0.017 0.014,0.031 0.031,0.031c0.001,0 0.003,-0.001 0.004,-0.001l0.896,0c0.002,0 0.003,0 0.005,0c0.016,0 0.03,0.014 0.03,0.03c0,0.002 0,0.003 0,0.005l0,0.127c0.001,0.003 0.001,0.006 0.001,0.01c0,0.016 -0.013,0.03 -0.03,0.03c-0.002,0 -0.004,0 -0.006,-0.001Z" style="fill-rule:nonzero;"/><path d="M79.75,28.276c-0.003,0.034 -0.016,0.068 -0.039,0.094c-0.028,0.04 -0.063,0.073 -0.104,0.099c-0.053,0.034 -0.109,0.06 -0.169,0.079c-0.071,0.02 -0.144,0.03 -0.218,0.03l-0.104,0c-0.16,0.009 -0.316,-0.047 -0.435,-0.154c-0.108,-0.109 -0.166,-0.257 -0.159,-0.41l0,-1.106c-0.007,-0.153 0.051,-0.301 0.159,-0.409c0.119,-0.108 0.275,-0.164 0.435,-0.155l0.104,0c0.073,0 0.146,0.01 0.216,0.031c0.06,0.017 0.117,0.042 0.171,0.074c0.042,0.025 0.079,0.058 0.109,0.096c0.023,0.027 0.037,0.06 0.04,0.094c0,0.013 -0.008,0.021 -0.024,0.028l-0.145,0.072c-0.005,0.002 -0.011,0.002 -0.017,0c-0.009,-0.001 -0.018,-0.006 -0.024,-0.013l-0.074,-0.072c-0.023,-0.022 -0.047,-0.042 -0.073,-0.061c-0.025,-0.017 -0.052,-0.03 -0.081,-0.04c-0.031,-0.011 -0.064,-0.016 -0.098,-0.016l-0.104,0c-0.049,-0.001 -0.098,0.008 -0.144,0.027c-0.043,0.019 -0.082,0.045 -0.115,0.078c-0.034,0.034 -0.06,0.074 -0.078,0.117c-0.018,0.045 -0.027,0.094 -0.027,0.143l0,1.109c0,0.05 0.01,0.1 0.03,0.146c0.018,0.043 0.044,0.082 0.077,0.115c0.033,0.033 0.071,0.059 0.114,0.078c0.045,0.019 0.094,0.029 0.143,0.029l0.104,0c0.041,-0.001 0.082,-0.009 0.12,-0.024c0.039,-0.014 0.074,-0.035 0.104,-0.062c0.031,-0.028 0.059,-0.057 0.085,-0.089c0.016,-0.023 0.031,-0.035 0.043,-0.035c0.005,-0.001 0.011,-0.001 0.016,0l0.145,0.072c0.014,0.005 0.022,0.021 0.017,0.035Z" style="fill-rule:nonzero;"/><path d="M82.382,28.543l-0.149,0l-0.03,-0.016l-0.924,-1.695l-0.007,0l0.017,1.677c0,0.001 0,0.003 0,0.004c0,0.017 -0.013,0.031 -0.03,0.031c-0.001,0 -0.003,0 -0.004,-0.001l-0.162,0c-0.001,0.001 -0.003,0.001 -0.004,0.001c-0.017,0 -0.031,-0.014 -0.031,-0.031c0,-0.001 0,-0.003 0.001,-0.004l0,-2.093c-0.001,-0.001 -0.001,-0.003 -0.001,-0.004c0,-0.017 0.014,-0.03 0.031,-0.03c0.001,0 0.003,0 0.004,0l0.148,0l0.031,0.018l0.928,1.704l0.006,0l-0.02,-1.688c0,-0.023 0.011,-0.034 0.034,-0.034l0.162,0c0.002,0 0.003,0 0.005,0c0.016,0 0.03,0.013 0.03,0.03c0,0.001 0,0.003 0,0.004l0,2.093c0,0.001 0,0.003 0,0.004c0,0.017 -0.014,0.031 -0.03,0.031c-0.002,0 -0.003,0 -0.005,-0.001Z" style="fill-rule:nonzero;"/><path d="M84.872,28.424c-0.12,0.107 -0.278,0.162 -0.439,0.154l-0.104,0c-0.16,0.008 -0.317,-0.047 -0.437,-0.154c-0.109,-0.108 -0.168,-0.257 -0.161,-0.41l0,-1.106c-0.007,-0.153 0.052,-0.302 0.161,-0.409c0.12,-0.108 0.277,-0.163 0.437,-0.155l0.104,0c0.085,-0.001 0.169,0.013 0.248,0.041c0.07,0.026 0.134,0.065 0.189,0.116c0.054,0.049 0.095,0.11 0.122,0.178c0.029,0.073 0.044,0.151 0.043,0.229l0,1.106c0.006,0.153 -0.053,0.302 -0.163,0.41Zm-0.068,-1.519c0.001,-0.049 -0.009,-0.098 -0.029,-0.143c-0.018,-0.043 -0.045,-0.082 -0.078,-0.115c-0.034,-0.034 -0.074,-0.06 -0.118,-0.078c-0.046,-0.019 -0.095,-0.029 -0.145,-0.029l-0.104,0c-0.098,-0.003 -0.192,0.035 -0.261,0.104c-0.034,0.034 -0.061,0.073 -0.079,0.117c-0.018,0.045 -0.028,0.094 -0.028,0.143l0,1.109c0,0.097 0.037,0.191 0.104,0.261c0.071,0.067 0.164,0.105 0.261,0.105l0.104,0c0.05,0 0.099,-0.01 0.144,-0.029c0.089,-0.038 0.159,-0.108 0.197,-0.196c0.02,-0.045 0.03,-0.094 0.029,-0.143l0.003,-1.106Z" style="fill-rule:nonzero;"/><path d="M87.51,28.543l-1.128,0c-0.001,0.001 -0.003,0.001 -0.004,0.001c-0.017,0 -0.03,-0.014 -0.03,-0.031c0,-0.001 0,-0.003 0,-0.004l0,-2.093c0,-0.001 0,-0.003 0,-0.004c0,-0.017 0.013,-0.03 0.03,-0.03c0.001,0 0.003,0 0.004,0l0.164,0c0.001,0 0.003,0 0.004,0c0.017,0 0.031,0.013 0.031,0.03c0,0.001 -0.001,0.003 -0.001,0.004l0,1.897c0,0.002 0,0.003 0,0.005c0,0.016 0.014,0.03 0.03,0.03c0.002,0 0.003,0 0.005,-0.001l0.897,0c0.001,0 0.003,0 0.004,0c0.017,0 0.031,0.014 0.031,0.03c0,0.002 0,0.003 -0.001,0.005l0,0.127c0.001,0.002 0.001,0.003 0.001,0.005c0,0.016 -0.014,0.03 -0.03,0.03c-0.003,0 -0.005,0 -0.007,-0.001Z" style="fill-rule:nonzero;"/><path d="M89.777,28.424c-0.12,0.107 -0.278,0.162 -0.438,0.154l-0.104,0c-0.16,0.008 -0.318,-0.047 -0.437,-0.154c-0.109,-0.108 -0.168,-0.257 -0.161,-0.41l0,-1.106c-0.007,-0.153 0.052,-0.302 0.161,-0.409c0.119,-0.108 0.277,-0.163 0.437,-0.155l0.104,0c0.084,-0.001 0.168,0.013 0.248,0.041c0.07,0.026 0.134,0.065 0.189,0.116c0.052,0.05 0.094,0.11 0.122,0.178c0.029,0.073 0.043,0.151 0.042,0.229l0,1.106c0.007,0.154 -0.053,0.303 -0.163,0.41Zm-0.067,-1.519c0,-0.049 -0.01,-0.098 -0.029,-0.143c-0.019,-0.043 -0.045,-0.082 -0.078,-0.115c-0.034,-0.034 -0.074,-0.06 -0.118,-0.078c-0.046,-0.019 -0.095,-0.029 -0.145,-0.029l-0.104,0c-0.05,-0.001 -0.099,0.009 -0.145,0.027c-0.043,0.019 -0.083,0.045 -0.117,0.079c-0.033,0.033 -0.06,0.072 -0.077,0.116c-0.019,0.045 -0.028,0.094 -0.028,0.143l0,1.109c-0.001,0.05 0.009,0.1 0.029,0.146c0.019,0.043 0.045,0.082 0.078,0.116c0.07,0.067 0.163,0.104 0.26,0.104l0.104,0c0.049,0 0.098,-0.01 0.143,-0.029c0.044,-0.019 0.084,-0.046 0.118,-0.08c0.034,-0.033 0.061,-0.073 0.08,-0.116c0.019,-0.045 0.029,-0.094 0.029,-0.143l0,-1.107Z" style="fill-rule:nonzero;"/><path d="M92.423,28.424c-0.12,0.107 -0.278,0.162 -0.439,0.154l-0.104,0c-0.16,0.008 -0.317,-0.047 -0.436,-0.154c-0.109,-0.108 -0.168,-0.257 -0.161,-0.41l0,-1.106c-0.007,-0.153 0.052,-0.302 0.161,-0.409c0.119,-0.108 0.277,-0.163 0.437,-0.155l0.172,0c0.136,-0.001 0.27,0.035 0.386,0.105c0.041,0.025 0.076,0.058 0.105,0.096c0.021,0.027 0.035,0.06 0.037,0.094c0,0.013 -0.008,0.021 -0.024,0.028l-0.141,0.072c-0.006,0.002 -0.012,0.002 -0.017,0c-0.01,0 -0.019,-0.005 -0.024,-0.013c-0.049,-0.05 -0.095,-0.094 -0.141,-0.133c-0.053,-0.04 -0.118,-0.06 -0.184,-0.056l-0.174,0c-0.05,-0.001 -0.099,0.008 -0.145,0.027c-0.044,0.019 -0.083,0.045 -0.117,0.078c-0.033,0.034 -0.06,0.073 -0.077,0.117c-0.019,0.045 -0.028,0.094 -0.028,0.143l0,1.109c-0.001,0.05 0.009,0.1 0.029,0.146c0.019,0.043 0.045,0.082 0.078,0.115c0.07,0.068 0.163,0.105 0.26,0.105l0.104,0c0.049,0 0.098,-0.01 0.143,-0.03c0.088,-0.037 0.159,-0.107 0.198,-0.196c0.019,-0.044 0.029,-0.093 0.029,-0.142l0,-0.274c0,-0.002 0,-0.003 0,-0.005c0,-0.016 -0.013,-0.03 -0.03,-0.03c-0.002,0 -0.003,0 -0.005,0l-0.35,0c-0.001,0 -0.003,0.001 -0.004,0.001c-0.017,0 -0.03,-0.014 -0.03,-0.031c0,-0.001 0,-0.003 0,-0.004l0,-0.128c0,-0.023 0.011,-0.034 0.034,-0.034l0.592,0c0.001,0 0.002,0 0.004,0c0.016,0 0.03,0.014 0.03,0.03c0,0.001 0,0.003 0,0.004l0,0.473c0.006,0.155 -0.055,0.306 -0.168,0.413Z" style="fill-rule:nonzero;"/><path d="M94.063,28.543l-0.161,0c-0.002,0.001 -0.003,0.001 -0.005,0.001c-0.016,0 -0.03,-0.014 -0.03,-0.031c0,-0.001 0,-0.003 0,-0.004l0,-2.093c0,-0.001 0,-0.003 0,-0.004c0,-0.017 0.014,-0.03 0.03,-0.03c0.002,0 0.003,0 0.005,0l0.161,0c0.002,0 0.003,0 0.005,0c0.016,0 0.03,0.013 0.03,0.03c0,0.001 0,0.003 0,0.004l0,2.093c0,0.001 0,0.003 0,0.004c0,0.017 -0.014,0.031 -0.03,0.031c-0.002,0 -0.003,0 -0.005,-0.001Z" style="fill-rule:nonzero;"/><path d="M96.777,28.508c0.001,0.002 0.001,0.003 0,0.005c0,0.02 -0.012,0.03 -0.037,0.03l-0.175,0c-0.021,0 -0.033,-0.007 -0.035,-0.024l-0.134,-0.474c0,-0.013 -0.014,-0.021 -0.035,-0.021l-0.644,0c-0.02,0 -0.031,0.008 -0.034,0.021l-0.134,0.474c0,0.017 -0.013,0.024 -0.034,0.024l-0.175,0c-0.026,0 -0.039,-0.01 -0.039,-0.03c0,-0.002 0,-0.003 0,-0.005c0.001,-0.003 0.001,-0.006 0,-0.009l0.636,-2.093c0.005,-0.015 0.019,-0.025 0.034,-0.024l0.131,0c0.015,0 0.029,0.009 0.034,0.024l0.636,2.093c0.003,0.005 0.003,0.008 0.005,0.009Zm-0.689,-1.607c-0.005,-0.014 -0.009,-0.028 -0.012,-0.043l-0.026,-0.092l-0.014,0c-0.007,0.029 -0.013,0.053 -0.021,0.074c-0.007,0.022 -0.012,0.043 -0.016,0.061l-0.244,0.884c0.001,0.002 0.001,0.005 0,0.008c0,0.021 0.012,0.03 0.038,0.03l0.494,0c0.026,0 0.039,-0.009 0.039,-0.03c0,-0.002 0,-0.005 0,-0.007c-0.001,-0.002 -0.001,-0.005 0,-0.007l-0.238,-0.878Z" style="fill-rule:nonzero;"/><path d="M91.16,17.676c0,0.001 0,0.001 0,0.001c0,0.412 -0.34,0.751 -0.752,0.751c-0.201,0 -0.393,-0.08 -0.534,-0.223c-0.142,-0.139 -0.221,-0.33 -0.219,-0.529c0,-0.412 0.339,-0.752 0.752,-0.752c0.413,0 0.753,0.34 0.753,0.752Z" style="fill-rule:nonzero;"/><path d="M50.921,13.314c-0.159,0.149 -0.247,0.36 -0.241,0.578c-0.005,0.12 0.028,0.237 0.095,0.337c0.072,0.097 0.161,0.181 0.263,0.247c0.131,0.084 0.268,0.157 0.411,0.219c0.16,0.069 0.338,0.149 0.532,0.24c0.273,0.121 0.534,0.266 0.781,0.433c0.206,0.14 0.391,0.308 0.55,0.499c0.145,0.179 0.255,0.384 0.326,0.603c0.073,0.241 0.108,0.493 0.104,0.746c0.003,0.278 -0.046,0.554 -0.146,0.814c-0.093,0.236 -0.235,0.449 -0.417,0.625c-0.19,0.18 -0.415,0.318 -0.662,0.404c-0.276,0.096 -0.566,0.143 -0.859,0.14l-0.449,0c-0.637,0 -1.123,-0.176 -1.459,-0.527c-0.155,-0.152 -0.289,-0.324 -0.399,-0.511c-0.06,-0.095 -0.1,-0.201 -0.118,-0.313c0,-0.03 0.023,-0.056 0.068,-0.078l0.976,-0.477c0.018,-0.008 0.037,-0.012 0.057,-0.012c0.037,0 0.066,0.029 0.089,0.085c0.037,0.085 0.077,0.169 0.121,0.25c0.063,0.123 0.161,0.224 0.282,0.292c0.115,0.07 0.246,0.109 0.381,0.111l0.449,0c0.213,0.002 0.418,-0.083 0.567,-0.235c0.157,-0.148 0.245,-0.354 0.243,-0.569c0.012,-0.254 -0.112,-0.496 -0.325,-0.635c-0.28,-0.18 -0.573,-0.34 -0.876,-0.477c-0.277,-0.133 -0.547,-0.281 -0.808,-0.443c-0.214,-0.132 -0.41,-0.29 -0.584,-0.471c-0.154,-0.164 -0.274,-0.357 -0.353,-0.567c-0.083,-0.234 -0.123,-0.482 -0.118,-0.73c-0.006,-0.278 0.044,-0.555 0.146,-0.814c0.094,-0.235 0.236,-0.448 0.417,-0.625c0.189,-0.178 0.412,-0.316 0.656,-0.404c0.276,-0.101 0.566,-0.15 0.859,-0.146l0.169,0c0.455,-0.016 0.903,0.113 1.28,0.37c0.107,0.078 0.206,0.167 0.297,0.264c0.084,0.089 0.161,0.184 0.231,0.285c0.056,0.08 0.105,0.164 0.147,0.252c0.026,0.049 0.043,0.102 0.05,0.157c-0.003,0.041 -0.029,0.076 -0.068,0.09l-0.976,0.483c-0.018,0.008 -0.037,0.012 -0.056,0.011c-0.03,0 -0.056,-0.018 -0.067,-0.045c-0.024,-0.043 -0.05,-0.084 -0.078,-0.124c-0.086,-0.156 -0.196,-0.296 -0.326,-0.417c-0.119,-0.1 -0.271,-0.152 -0.427,-0.146l-0.169,0c-0.212,-0.001 -0.416,0.082 -0.566,0.231Z" style="fill-rule:nonzero;"/><path d="M59.216,18.033c-0.095,0.234 -0.237,0.447 -0.416,0.625c-0.187,0.181 -0.412,0.319 -0.657,0.405c-0.276,0.095 -0.567,0.143 -0.859,0.139l-0.55,0c-0.292,0.004 -0.583,-0.044 -0.859,-0.139c-0.247,-0.087 -0.472,-0.225 -0.662,-0.405c-0.182,-0.176 -0.324,-0.389 -0.417,-0.625c-0.1,-0.26 -0.15,-0.536 -0.145,-0.814l0,-5.09c-0.001,-0.003 -0.001,-0.005 -0.001,-0.008c0,-0.057 0.047,-0.104 0.104,-0.104c0.002,0 0.003,0 0.005,0l1.056,0c0.003,0 0.005,0 0.008,0c0.057,0 0.104,0.047 0.104,0.104c0,0.003 0,0.005 0,0.008l0,5.086c-0.004,0.215 0.082,0.422 0.237,0.572c0.151,0.154 0.359,0.24 0.575,0.235l0.553,0c0.214,0.006 0.42,-0.078 0.57,-0.23c0.154,-0.152 0.238,-0.361 0.232,-0.577l0,-5.086c-0.001,-0.005 -0.001,-0.009 -0.001,-0.014c0,-0.054 0.044,-0.098 0.098,-0.098c0.002,0 0.005,0 0.007,0l1.058,0c0.003,0 0.005,0 0.008,0c0.057,0 0.104,0.047 0.104,0.104c0,0.003 0,0.005 0,0.008l0,5.086c0.004,0.28 -0.047,0.558 -0.152,0.818Z" style="fill-rule:nonzero;"/><path d="M66.239,19.09l-1.033,0c-0.003,0 -0.006,0 -0.009,0c-0.057,0 -0.104,-0.047 -0.104,-0.104c0,-0.003 0,-0.006 0,-0.009l0.105,-4.377l-1.268,3.457c-0.045,0.045 -0.078,0.066 -0.104,0.066l-0.57,0c-0.046,0.004 -0.088,-0.024 -0.104,-0.066l-1.258,-3.458l0.104,4.377c0,0.003 0,0.006 0,0.009c0,0.057 -0.047,0.104 -0.104,0.104c-0.003,0 -0.006,0 -0.01,0l-1.052,0c-0.003,0 -0.007,0 -0.01,0c-0.057,0 -0.104,-0.047 -0.104,-0.104c0,-0.003 0,-0.006 0,-0.009l0,-6.847c0,-0.003 0,-0.005 0,-0.008c0,-0.057 0.047,-0.104 0.104,-0.104c0.003,0 0.006,0 0.009,0l0.965,0c0.037,0.019 0.072,0.041 0.104,0.067l1.639,4.446l1.639,-4.446c0.03,-0.029 0.065,-0.052 0.104,-0.067l0.966,0c0.003,0 0.005,0 0.008,0c0.057,0 0.104,0.047 0.104,0.104c0,0.003 0,0.005 0,0.008l0,6.848c0,0.003 0,0.007 0,0.01c0,0.057 -0.047,0.104 -0.104,0.104c-0.006,0 -0.012,0 -0.017,-0.001Z" style="fill-rule:nonzero;"/><path d="M73.389,19.09l-1.033,0c-0.003,0 -0.005,0 -0.008,0c-0.057,0 -0.105,-0.047 -0.105,-0.104c0,-0.003 0.001,-0.006 0.001,-0.009l0.104,-4.377l-1.267,3.457c-0.045,0.045 -0.078,0.066 -0.104,0.066l-0.571,0c-0.045,0.004 -0.087,-0.024 -0.104,-0.066l-1.258,-3.458l0.105,4.377c0,0.003 0,0.006 0,0.009c0,0.057 -0.047,0.104 -0.104,0.104c-0.004,0 -0.007,0 -0.01,0l-1.053,0c-0.003,0 -0.006,0 -0.009,0c-0.058,0 -0.105,-0.047 -0.105,-0.104c0,-0.003 0,-0.006 0.001,-0.009l0,-6.847c0,-0.003 -0.001,-0.005 -0.001,-0.008c0,-0.057 0.047,-0.104 0.105,-0.104c0.003,0 0.005,0 0.008,0l0.965,0c0.037,0.019 0.072,0.041 0.105,0.067l1.633,4.446l1.639,-4.446c0.03,-0.029 0.065,-0.052 0.104,-0.067l0.966,0c0.003,0 0.006,0 0.009,0c0.057,0 0.104,0.047 0.104,0.104c0,0.003 0,0.005 0,0.008l0,6.848c0,0.003 0,0.006 0,0.009c0,0.057 -0.047,0.104 -0.104,0.104c-0.004,0 -0.009,0 -0.013,0Z" style="fill-rule:nonzero;"/><path d="M76.051,19.09l-1.058,0c-0.002,0 -0.005,0 -0.008,0c-0.057,0 -0.104,-0.047 -0.104,-0.104c0,-0.003 0,-0.006 0.001,-0.009l0,-6.848c-0.001,-0.003 -0.001,-0.005 -0.001,-0.008c0,-0.057 0.047,-0.104 0.105,-0.104c0.002,0 0.005,0 0.007,0l1.058,0c0.004,0 0.009,-0.001 0.014,-0.001c0.053,0 0.098,0.045 0.098,0.098c0,0.005 -0.001,0.01 -0.002,0.015l0,6.848c0.001,0.005 0.002,0.01 0.002,0.016c0,0.053 -0.045,0.098 -0.098,0.098c-0.005,0 -0.009,-0.001 -0.014,-0.001Z" style="fill-rule:nonzero;"/><path d="M81.158,13.196l-1.224,0c-0.003,0 -0.006,0 -0.008,0c-0.058,0 -0.105,0.047 -0.105,0.104c0,0.002 0,0.005 0.001,0.008l0,5.669c0,0.003 0,0.006 0,0.009c0,0.057 -0.047,0.104 -0.104,0.104c-0.003,0 -0.006,0 -0.009,0l-1.055,0c-0.003,0 -0.005,0 -0.008,0c-0.058,0 -0.105,-0.047 -0.105,-0.104c0,-0.003 0.001,-0.006 0.001,-0.009l0,-5.669c0,-0.003 0,-0.006 0,-0.008c0,-0.057 -0.047,-0.104 -0.104,-0.104c-0.003,0 -0.006,0 -0.009,0l-1.223,0c-0.003,0 -0.006,0 -0.009,0c-0.057,0 -0.104,-0.047 -0.104,-0.104c0,-0.003 0,-0.006 0,-0.009l0,-0.954c0,-0.003 0,-0.005 0,-0.008c0,-0.057 0.047,-0.104 0.104,-0.104c0.003,0 0.006,0 0.009,0l3.952,0c0.002,0 0.005,0 0.007,0c0.057,0 0.105,0.047 0.105,0.104c0,0.003 -0.001,0.005 -0.001,0.008l0,0.954c0,0.003 0.001,0.006 0.001,0.009c0,0.057 -0.047,0.104 -0.105,0.104c-0.002,0 -0.005,0 -0.007,0Z" style="fill-rule:nonzero;"/><path d="M87.213,12.051c0.245,0.089 0.471,0.226 0.663,0.404c0.183,0.175 0.326,0.388 0.417,0.625c0.1,0.26 0.149,0.536 0.146,0.814c0.005,0.259 -0.035,0.517 -0.121,0.761c-0.084,0.219 -0.204,0.422 -0.355,0.6c-0.166,0.196 -0.355,0.371 -0.564,0.521c-0.221,0.161 -0.475,0.331 -0.76,0.511c-0.181,0.112 -0.344,0.219 -0.49,0.32c-0.135,0.09 -0.26,0.195 -0.372,0.313c-0.097,0.102 -0.177,0.219 -0.237,0.347c-0.057,0.131 -0.086,0.273 -0.084,0.417l0,0.112c-0.001,0.003 -0.001,0.006 -0.001,0.009c0,0.057 0.047,0.104 0.105,0.104c0.003,0 0.005,0 0.008,0l2.683,0c0.003,0 0.006,-0.001 0.009,-0.001c0.057,0 0.104,0.047 0.104,0.105c0,0.002 0,0.005 -0.001,0.007l0,0.955c0.001,0.003 0.001,0.006 0.001,0.009c0,0.057 -0.047,0.104 -0.104,0.104c-0.003,0 -0.006,0 -0.009,0l-3.96,0c-0.003,0 -0.006,0 -0.009,0c-0.057,0 -0.104,-0.047 -0.104,-0.104c0,-0.003 0,-0.006 0,-0.009l0,-1.289c-0.004,-0.274 0.038,-0.547 0.123,-0.808c0.084,-0.244 0.209,-0.472 0.369,-0.674c0.178,-0.223 0.384,-0.422 0.612,-0.594c0.27,-0.206 0.553,-0.393 0.847,-0.562c0.275,-0.151 0.533,-0.332 0.769,-0.539c0.173,-0.158 0.269,-0.383 0.264,-0.617c0.004,-0.216 -0.084,-0.425 -0.242,-0.573c-0.149,-0.152 -0.353,-0.237 -0.566,-0.236l-0.404,0c-0.258,0 -0.497,0.137 -0.626,0.36c-0.062,0.083 -0.114,0.174 -0.156,0.269c-0.03,0.075 -0.063,0.112 -0.104,0.112l-0.068,-0.022l-0.965,-0.494c-0.045,-0.022 -0.068,-0.048 -0.068,-0.079c0.025,-0.099 0.064,-0.193 0.118,-0.28c0.106,-0.185 0.236,-0.355 0.388,-0.505c0.359,-0.36 0.853,-0.539 1.482,-0.539l0.404,0c0.293,-0.004 0.583,0.046 0.858,0.146Z" style="fill-rule:nonzero;"/><path d="M96.644,18.022c-0.094,0.236 -0.236,0.449 -0.417,0.626c-0.19,0.177 -0.413,0.315 -0.658,0.403c-0.275,0.101 -0.566,0.15 -0.859,0.146l-0.325,0c-0.292,0.003 -0.582,-0.044 -0.858,-0.14c-0.247,-0.086 -0.473,-0.224 -0.662,-0.404c-0.182,-0.176 -0.325,-0.39 -0.417,-0.625c-0.101,-0.26 -0.15,-0.536 -0.146,-0.814l0,-3.322c-0.004,-0.278 0.047,-0.555 0.151,-0.814c0.094,-0.235 0.236,-0.448 0.417,-0.625c0.189,-0.178 0.412,-0.316 0.657,-0.404c0.275,-0.101 0.566,-0.15 0.858,-0.146l0.325,0c0.293,-0.004 0.584,0.045 0.859,0.146c0.245,0.088 0.468,0.226 0.658,0.404c0.181,0.177 0.323,0.39 0.417,0.625c0.103,0.259 0.155,0.536 0.151,0.814l0,3.323c0.002,0.276 -0.049,0.551 -0.151,0.807Zm-1.129,-4.13c0,-0.006 0,-0.013 0,-0.02c0,-0.433 -0.356,-0.789 -0.789,-0.789c-0.004,0 -0.008,0 -0.012,0l-0.328,0c-0.216,-0.004 -0.425,0.082 -0.576,0.236c-0.155,0.15 -0.241,0.358 -0.237,0.573l0,3.323c-0.004,0.215 0.082,0.422 0.237,0.572c0.151,0.154 0.36,0.239 0.576,0.235l0.328,0c0.004,0 0.008,0.001 0.012,0.001c0.433,0 0.789,-0.357 0.789,-0.789c0,-0.007 0,-0.013 0,-0.019l0,-3.323Z" style="fill-rule:nonzero;"/><path d="M49.756,20.943c-0.047,0.019 -0.089,0.047 -0.126,0.082c-0.035,0.035 -0.064,0.077 -0.084,0.123c-0.022,0.048 -0.033,0.1 -0.032,0.152c-0.002,0.083 0.03,0.164 0.088,0.223c0.078,0.077 0.169,0.138 0.269,0.183l0.269,0.128c0.08,0.037 0.157,0.082 0.228,0.134c0.172,0.13 0.271,0.337 0.263,0.553c0.007,0.167 -0.057,0.329 -0.176,0.447c-0.131,0.117 -0.304,0.178 -0.48,0.168l-0.161,0c-0.082,0.002 -0.164,-0.01 -0.242,-0.033c-0.065,-0.019 -0.126,-0.048 -0.182,-0.084c-0.045,-0.028 -0.084,-0.064 -0.116,-0.105c-0.025,-0.029 -0.04,-0.065 -0.042,-0.104c0.001,-0.014 0.01,-0.026 0.023,-0.03l0.157,-0.082c0.007,-0.001 0.013,-0.001 0.019,0c0.006,-0.001 0.012,0.002 0.017,0.006c0.005,0.004 0.009,0.008 0.012,0.013l0.075,0.079c0.025,0.024 0.051,0.046 0.078,0.067c0.026,0.02 0.056,0.036 0.088,0.047c0.036,0.012 0.075,0.018 0.113,0.017l0.161,0c0.054,0 0.107,-0.01 0.157,-0.03c0.048,-0.019 0.093,-0.048 0.13,-0.085c0.036,-0.037 0.065,-0.08 0.085,-0.127c0.022,-0.05 0.033,-0.104 0.033,-0.159c0.001,-0.057 -0.012,-0.113 -0.036,-0.164c-0.026,-0.048 -0.061,-0.091 -0.104,-0.125c-0.05,-0.04 -0.103,-0.075 -0.159,-0.104c-0.063,-0.034 -0.135,-0.069 -0.214,-0.104c-0.098,-0.048 -0.185,-0.093 -0.26,-0.136c-0.069,-0.038 -0.133,-0.086 -0.188,-0.143c-0.052,-0.051 -0.092,-0.113 -0.119,-0.181c-0.029,-0.079 -0.043,-0.162 -0.041,-0.246c-0.007,-0.167 0.057,-0.329 0.176,-0.446c0.13,-0.117 0.302,-0.178 0.477,-0.169l0.06,0c0.15,-0.001 0.298,0.041 0.425,0.12c0.045,0.028 0.085,0.063 0.118,0.104c0.025,0.03 0.039,0.066 0.042,0.104c0,0.011 -0.01,0.019 -0.027,0.026l-0.158,0.08c-0.006,0.002 -0.012,0.002 -0.018,0c-0.011,-0.001 -0.021,-0.007 -0.026,-0.016c-0.049,-0.051 -0.1,-0.099 -0.155,-0.144c-0.058,-0.044 -0.13,-0.066 -0.203,-0.062l-0.06,0c-0.052,-0.002 -0.104,0.005 -0.154,0.023Z" style="fill-rule:nonzero;"/><path d="M52.287,22.281l-0.979,0c-0.001,0 -0.002,0 -0.003,0c-0.019,0 -0.035,0.015 -0.035,0.034c0,0.001 0.001,0.003 0.001,0.004l0,0.203c0,0.053 0.01,0.106 0.03,0.155c0.019,0.048 0.049,0.092 0.085,0.128c0.037,0.036 0.08,0.065 0.126,0.085c0.05,0.023 0.104,0.034 0.158,0.033c0.093,-0.001 0.183,-0.039 0.249,-0.104c0.032,-0.029 0.061,-0.06 0.089,-0.093c0.018,-0.023 0.034,-0.036 0.046,-0.036c0.007,-0.001 0.013,-0.001 0.019,0l0.159,0.079c0.013,0.003 0.022,0.016 0.021,0.03c-0.002,0.038 -0.017,0.075 -0.041,0.104c-0.032,0.044 -0.072,0.081 -0.118,0.109c-0.057,0.037 -0.119,0.065 -0.184,0.085c-0.078,0.023 -0.158,0.034 -0.239,0.033c-0.175,0.01 -0.346,-0.05 -0.476,-0.167c-0.12,-0.117 -0.183,-0.28 -0.175,-0.448l0,-0.506c0,-0.074 0.016,-0.146 0.045,-0.214c0.031,-0.074 0.075,-0.141 0.131,-0.199c0.122,-0.13 0.294,-0.203 0.473,-0.198c0.087,0 0.174,0.017 0.254,0.05c0.077,0.033 0.148,0.078 0.209,0.136c0.059,0.055 0.106,0.121 0.14,0.194c0.033,0.073 0.05,0.151 0.05,0.231l0,0.228c0.002,0.004 0.003,0.008 0.003,0.012c0,0.018 -0.015,0.032 -0.033,0.032c-0.002,0 -0.003,0 -0.005,0Zm-0.209,-0.266c0,-0.052 -0.01,-0.103 -0.031,-0.151c-0.021,-0.048 -0.049,-0.091 -0.085,-0.128c-0.037,-0.037 -0.081,-0.066 -0.129,-0.087c-0.05,-0.021 -0.104,-0.031 -0.158,-0.031c-0.055,-0.001 -0.109,0.01 -0.159,0.031c-0.047,0.02 -0.09,0.049 -0.127,0.085c-0.036,0.036 -0.064,0.079 -0.083,0.126c-0.02,0.049 -0.03,0.102 -0.03,0.155l0,0.053c0,0.025 0.012,0.037 0.037,0.037l0.73,0c0.025,0 0.037,-0.012 0.037,-0.037l-0.002,-0.053Z" style="fill-rule:nonzero;"/><path d="M53.577,21.708c-0.019,0.001 -0.039,0.001 -0.058,0c-0.028,-0.005 -0.056,-0.007 -0.085,-0.007c-0.054,0 -0.109,0.01 -0.159,0.031c-0.047,0.019 -0.09,0.047 -0.125,0.084c-0.073,0.075 -0.113,0.175 -0.113,0.279l0,0.972c0,0.001 0,0.003 0,0.004c0,0.018 -0.015,0.033 -0.033,0.033c-0.001,0 -0.002,0 -0.003,0l-0.178,0c-0.002,0 -0.003,0 -0.004,0c-0.018,0 -0.033,-0.015 -0.033,-0.033c0,-0.001 0,-0.003 0,-0.004l0,-1.588c0,-0.001 0,-0.003 0,-0.005c0,-0.018 0.015,-0.033 0.033,-0.033c0.001,0 0.002,0 0.004,0l0.136,0c0.001,0 0.002,0 0.003,0c0.019,0 0.035,0.015 0.035,0.034c0,0.001 0,0.003 0,0.004l0,0.188c0,0.027 0.009,0.041 0.029,0.041c0.02,0 0.048,-0.02 0.082,-0.061c0.048,-0.051 0.099,-0.099 0.154,-0.142c0.024,-0.02 0.051,-0.035 0.081,-0.044c0.029,-0.012 0.06,-0.019 0.091,-0.02l0.14,0c0.001,0 0.002,0 0.004,0c0.018,0 0.033,0.015 0.033,0.033c0,0.002 0,0.004 -0.001,0.005l0,0.191c0.003,0.025 -0.01,0.038 -0.033,0.038Z" style="fill-rule:nonzero;"/><path d="M54.759,23.076c-0.009,0.011 -0.02,0.019 -0.033,0.023l-0.158,0c-0.015,0 -0.029,-0.009 -0.034,-0.023l-0.637,-1.582c-0.004,-0.007 -0.006,-0.014 -0.007,-0.022c0,-0.021 0.013,-0.031 0.04,-0.031l0.184,0c0.008,0 0.019,0.008 0.034,0.023l0.491,1.25l0.016,0l0.486,-1.25c0,-0.015 0.014,-0.023 0.035,-0.023l0.187,0c0.027,0 0.041,0.01 0.041,0.031c-0.001,0.008 -0.003,0.015 -0.007,0.022l-0.638,1.582Z" style="fill-rule:nonzero;"/><path d="M56.078,20.864c0,0.045 -0.017,0.087 -0.049,0.118c-0.031,0.033 -0.074,0.051 -0.12,0.05c-0.043,0.001 -0.084,-0.016 -0.114,-0.047c-0.032,-0.032 -0.049,-0.075 -0.047,-0.121c-0.001,-0.044 0.017,-0.086 0.049,-0.116c0.029,-0.031 0.07,-0.049 0.112,-0.049c0.046,-0.002 0.09,0.015 0.122,0.047c0.032,0.031 0.049,0.074 0.047,0.118Zm-0.078,2.235l-0.177,0c-0.001,0 -0.003,0 -0.004,0c-0.019,0 -0.034,-0.015 -0.034,-0.033c0,-0.002 0,-0.003 0,-0.005l0,-1.582c0,-0.001 0,-0.003 0,-0.004c0,-0.019 0.016,-0.034 0.035,-0.034c0.001,0 0.002,0 0.003,0l0.177,0c0.001,0 0.003,0 0.004,0c0.018,0 0.033,0.015 0.033,0.033c0,0.002 0,0.004 0,0.005l0,1.582c0,0.002 0,0.003 0,0.005c0,0.018 -0.015,0.033 -0.033,0.033c-0.002,0 -0.003,0 -0.004,0Z" style="fill-rule:nonzero;"/><path d="M57.818,22.806c-0.012,0.072 -0.054,0.136 -0.116,0.174c-0.102,0.075 -0.22,0.126 -0.345,0.149l-0.094,0.195c-0.004,0.007 -0.006,0.014 -0.007,0.022c0.001,0.014 0.009,0.027 0.022,0.034c0.099,0.044 0.166,0.139 0.173,0.247l0,0.034c0.002,0.085 -0.033,0.166 -0.096,0.224c-0.069,0.062 -0.16,0.095 -0.253,0.09l-0.135,0c-0.001,0.001 -0.003,0.001 -0.004,0.001c-0.018,0 -0.033,-0.015 -0.033,-0.034c0,-0.001 0,-0.003 0,-0.004l0,-0.061c0,-0.001 0,-0.003 0,-0.004c0,-0.018 0.015,-0.033 0.033,-0.033c0.001,0 0.003,0 0.004,0l0.135,0c0.048,0.001 0.094,-0.018 0.128,-0.052c0.034,-0.034 0.053,-0.08 0.052,-0.127l0,-0.035c0,-0.062 -0.017,-0.104 -0.049,-0.121c-0.041,-0.023 -0.085,-0.041 -0.131,-0.055c-0.027,-0.007 -0.041,-0.018 -0.041,-0.03l0.007,-0.022l0.123,-0.263c-0.166,-0.004 -0.325,-0.07 -0.446,-0.185c-0.107,-0.117 -0.164,-0.271 -0.157,-0.429l0,-0.507c-0.008,-0.167 0.055,-0.329 0.174,-0.446c0.131,-0.115 0.301,-0.174 0.475,-0.165c0.081,-0.001 0.161,0.011 0.238,0.034c0.064,0.019 0.126,0.047 0.183,0.082c0.046,0.027 0.087,0.063 0.121,0.104c0.025,0.029 0.04,0.066 0.043,0.104c0,0.013 -0.008,0.023 -0.026,0.031l-0.157,0.078c-0.006,0.001 -0.011,0.001 -0.016,0c-0.012,-0.001 -0.022,-0.006 -0.03,-0.015l-0.079,-0.075c-0.024,-0.025 -0.05,-0.048 -0.079,-0.068c-0.026,-0.02 -0.056,-0.036 -0.087,-0.046c-0.036,-0.012 -0.073,-0.018 -0.111,-0.017c-0.054,-0.001 -0.109,0.01 -0.159,0.031c-0.047,0.021 -0.09,0.049 -0.126,0.085c-0.036,0.036 -0.064,0.079 -0.083,0.126c-0.02,0.049 -0.03,0.102 -0.03,0.155l0,0.506c0,0.054 0.01,0.106 0.03,0.156c0.02,0.048 0.048,0.091 0.085,0.128c0.036,0.036 0.079,0.065 0.126,0.085c0.049,0.023 0.103,0.034 0.157,0.033c0.093,-0.001 0.182,-0.039 0.247,-0.105c0.032,-0.028 0.061,-0.059 0.089,-0.092c0.019,-0.023 0.034,-0.036 0.047,-0.036c0.006,-0.001 0.012,-0.001 0.019,0l0.157,0.078c0.014,0.003 0.024,0.016 0.024,0.03c0,0.004 -0.001,0.008 -0.002,0.011Z" style="fill-rule:nonzero;"/><path d="M59.383,22.968c-0.13,0.117 -0.302,0.177 -0.477,0.168c-0.174,0.01 -0.345,-0.05 -0.474,-0.166c-0.12,-0.118 -0.183,-0.281 -0.175,-0.448l0,-0.507c-0.009,-0.167 0.055,-0.329 0.175,-0.446c0.13,-0.115 0.3,-0.175 0.474,-0.165c0.092,-0.001 0.183,0.014 0.27,0.045c0.077,0.028 0.147,0.07 0.208,0.125c0.058,0.055 0.103,0.121 0.133,0.194c0.032,0.078 0.047,0.162 0.046,0.247l0,0.507c0.007,0.167 -0.059,0.33 -0.18,0.446Zm-0.073,-0.953c0,-0.052 -0.01,-0.103 -0.031,-0.151c-0.021,-0.048 -0.05,-0.091 -0.086,-0.128c-0.037,-0.037 -0.08,-0.066 -0.128,-0.087c-0.05,-0.021 -0.104,-0.031 -0.158,-0.031c-0.055,-0.001 -0.109,0.01 -0.16,0.031c-0.046,0.02 -0.089,0.049 -0.126,0.085c-0.036,0.036 -0.064,0.079 -0.083,0.126c-0.02,0.049 -0.03,0.102 -0.03,0.155l0,0.507c0,0.053 0.01,0.106 0.03,0.155c0.019,0.048 0.049,0.092 0.085,0.128c0.037,0.036 0.079,0.065 0.126,0.085c0.05,0.023 0.104,0.034 0.158,0.033c0.107,-0.001 0.21,-0.043 0.286,-0.118c0.036,-0.037 0.065,-0.081 0.086,-0.128c0.021,-0.049 0.031,-0.102 0.031,-0.155l0,-0.507Z" style="fill-rule:nonzero;"/><path d="M62.045,23.099l-0.137,0c-0.001,0 -0.003,0 -0.004,0c-0.018,0 -0.033,-0.015 -0.033,-0.033c0,-0.002 0,-0.003 0,-0.005l0,-0.161c0,-0.027 -0.01,-0.041 -0.029,-0.041c-0.018,0.003 -0.035,0.012 -0.046,0.026l-0.071,0.068c-0.042,0.037 -0.086,0.072 -0.131,0.104c-0.063,0.034 -0.133,0.049 -0.204,0.045c-0.083,0.001 -0.165,-0.015 -0.242,-0.045c-0.073,-0.029 -0.139,-0.072 -0.194,-0.126c-0.057,-0.055 -0.101,-0.121 -0.131,-0.195c-0.031,-0.079 -0.047,-0.164 -0.046,-0.249l0,-0.431c-0.001,-0.084 0.014,-0.167 0.044,-0.244c0.029,-0.072 0.071,-0.138 0.124,-0.193c0.054,-0.054 0.117,-0.097 0.187,-0.128c0.073,-0.032 0.152,-0.048 0.231,-0.047c0.04,0 0.08,0.004 0.119,0.013c0.029,0.007 0.056,0.018 0.081,0.033c0.057,0.036 0.109,0.078 0.155,0.127c0.035,0.04 0.062,0.06 0.082,0.06c0.02,0 0.03,-0.013 0.03,-0.041l0,-0.855c0,-0.001 0,-0.003 0,-0.004c0,-0.019 0.015,-0.034 0.033,-0.034c0.001,0 0.003,0 0.004,0.001l0.178,0c0.001,-0.001 0.002,-0.001 0.003,-0.001c0.019,0 0.034,0.015 0.034,0.034c0,0.001 0,0.003 -0.001,0.004l0,2.284c0,0 0,0 0,0.001c0,0.018 -0.015,0.033 -0.033,0.033c-0.001,0 -0.002,0 -0.003,0Zm-0.215,-1.042c0,-0.053 -0.011,-0.105 -0.032,-0.152c-0.02,-0.048 -0.049,-0.091 -0.085,-0.128c-0.036,-0.037 -0.08,-0.066 -0.128,-0.086c-0.05,-0.021 -0.104,-0.032 -0.158,-0.031c-0.055,-0.001 -0.109,0.01 -0.16,0.031c-0.047,0.02 -0.09,0.049 -0.127,0.084c-0.035,0.037 -0.063,0.079 -0.082,0.126c-0.02,0.05 -0.03,0.103 -0.03,0.156l0,0.431c0,0.053 0.01,0.106 0.03,0.155c0.019,0.049 0.048,0.092 0.084,0.129c0.037,0.035 0.08,0.064 0.126,0.085c0.05,0.022 0.104,0.033 0.159,0.032c0.107,0 0.21,-0.042 0.286,-0.117c0.036,-0.037 0.065,-0.081 0.085,-0.129c0.022,-0.048 0.033,-0.101 0.032,-0.155l0,-0.431Z" style="fill-rule:nonzero;"/><path d="M63.833,22.281l-0.979,0c-0.025,0 -0.037,0.013 -0.037,0.038l0,0.203c0,0.053 0.01,0.105 0.029,0.155c0.02,0.048 0.049,0.091 0.086,0.128c0.036,0.036 0.079,0.065 0.126,0.085c0.05,0.023 0.104,0.034 0.158,0.033c0.093,-0.001 0.182,-0.039 0.248,-0.104c0.032,-0.029 0.062,-0.06 0.089,-0.093c0.019,-0.023 0.034,-0.036 0.047,-0.036c0.006,-0.001 0.012,-0.001 0.019,0l0.158,0.079c0.013,0.003 0.022,0.016 0.022,0.03c-0.003,0.038 -0.017,0.074 -0.041,0.104c-0.032,0.043 -0.073,0.08 -0.119,0.109c-0.057,0.037 -0.119,0.065 -0.184,0.085c-0.077,0.023 -0.158,0.034 -0.239,0.033c-0.174,0.01 -0.345,-0.05 -0.476,-0.167c-0.119,-0.117 -0.183,-0.28 -0.175,-0.448l0,-0.506c0.001,-0.074 0.016,-0.146 0.046,-0.214c0.102,-0.242 0.341,-0.399 0.603,-0.397c0.088,0 0.174,0.017 0.255,0.05c0.077,0.033 0.147,0.078 0.208,0.136c0.06,0.054 0.108,0.121 0.141,0.194c0.033,0.073 0.05,0.151 0.05,0.231l0,0.228c0.002,0.032 -0.011,0.044 -0.035,0.044Zm-0.215,-0.266c0,-0.052 -0.011,-0.103 -0.032,-0.151c-0.02,-0.048 -0.049,-0.091 -0.085,-0.128c-0.037,-0.037 -0.08,-0.066 -0.127,-0.087c-0.051,-0.02 -0.104,-0.031 -0.159,-0.031c-0.055,-0.001 -0.109,0.01 -0.16,0.031c-0.047,0.021 -0.09,0.049 -0.126,0.085c-0.036,0.036 -0.064,0.079 -0.084,0.126c-0.019,0.049 -0.029,0.102 -0.029,0.155l0,0.053c0,0.025 0.012,0.037 0.038,0.037l0.729,0c0.025,0 0.038,-0.012 0.038,-0.037l-0.003,-0.053Z" style="fill-rule:nonzero;"/><path d="M66.45,20.951l-0.978,0c-0.002,0 -0.003,0 -0.005,0c-0.018,0 -0.033,0.015 -0.033,0.033c0,0.002 0,0.003 0,0.004l0,0.765c0,0.002 0,0.003 0,0.005c0,0.018 0.015,0.033 0.033,0.033c0.002,0 0.003,0 0.005,0l0.802,0c0.002,0 0.003,0 0.005,0c0.018,0 0.033,0.015 0.033,0.033c0,0.002 0,0.003 0,0.004l0,0.139c0,0.002 0,0.003 0,0.005c0,0.018 -0.015,0.033 -0.033,0.033c-0.002,0 -0.003,0 -0.005,0l-0.802,0c-0.002,-0.001 -0.003,-0.001 -0.005,-0.001c-0.018,0 -0.033,0.015 -0.033,0.034c0,0.001 0,0.003 0,0.004l0,1.016c0,0.002 0,0.003 0,0.005c0,0.018 -0.015,0.033 -0.033,0.033c-0.001,0 -0.003,0 -0.004,0l-0.177,0c-0.001,0 -0.003,0 -0.004,0c-0.018,0 -0.033,-0.015 -0.033,-0.033c0,-0.002 0,-0.003 0,-0.005l0,-2.28c0,-0.002 0,-0.003 0,-0.005c0,-0.018 0.015,-0.033 0.033,-0.033c0.001,0 0.003,0 0.004,0l1.23,0c0.002,0 0.003,0 0.005,0c0.018,0 0.033,0.015 0.033,0.033c0,0.002 0,0.003 0,0.005l0,0.139c0,0 0,0 0,0.001c0,0.018 -0.015,0.033 -0.034,0.033c-0.001,0 -0.002,0 -0.004,0Z" style="fill-rule:nonzero;"/><path d="M67.843,22.968c-0.129,0.117 -0.299,0.179 -0.474,0.172c-0.173,0.009 -0.344,-0.051 -0.474,-0.167c-0.119,-0.118 -0.183,-0.281 -0.175,-0.448l0,-0.507c-0.008,-0.167 0.056,-0.329 0.175,-0.446c0.13,-0.115 0.301,-0.174 0.474,-0.165c0.092,-0.001 0.184,0.014 0.27,0.045c0.077,0.028 0.148,0.07 0.209,0.125c0.057,0.055 0.103,0.121 0.132,0.194c0.032,0.079 0.048,0.163 0.047,0.247l0,0.507c0.005,0.167 -0.063,0.328 -0.184,0.443Zm-0.073,-0.953c0,-0.052 -0.011,-0.103 -0.032,-0.151c-0.02,-0.048 -0.049,-0.091 -0.085,-0.128c-0.037,-0.037 -0.08,-0.067 -0.128,-0.087c-0.102,-0.042 -0.216,-0.042 -0.318,0c-0.047,0.021 -0.089,0.049 -0.126,0.085c-0.036,0.036 -0.064,0.079 -0.084,0.126c-0.02,0.049 -0.03,0.102 -0.03,0.155l0,0.507c0,0.053 0.01,0.106 0.03,0.155c0.02,0.048 0.049,0.091 0.086,0.128c0.036,0.036 0.079,0.065 0.126,0.085c0.05,0.023 0.104,0.034 0.158,0.033c0.055,0 0.108,-0.011 0.158,-0.033c0.048,-0.019 0.092,-0.048 0.128,-0.085c0.036,-0.037 0.065,-0.081 0.085,-0.128c0.021,-0.049 0.032,-0.102 0.032,-0.155l0,-0.507Z" style="fill-rule:nonzero;"/><path d="M69.3,21.708c-0.02,0.001 -0.039,0.001 -0.059,0c-0.027,-0.005 -0.055,-0.007 -0.083,-0.007c-0.055,0 -0.11,0.01 -0.161,0.031c-0.047,0.019 -0.089,0.047 -0.125,0.084c-0.072,0.075 -0.113,0.175 -0.112,0.279l0,0.972c0,0.001 0,0.003 0,0.004c0,0.018 -0.015,0.033 -0.033,0.033c-0.001,0 -0.003,0 -0.004,0l-0.178,0c-0.001,0 -0.002,0 -0.003,0c-0.019,0 -0.034,-0.015 -0.034,-0.033c0,-0.001 0,-0.003 0.001,-0.004l0,-1.588c-0.001,-0.001 -0.001,-0.003 -0.001,-0.005c0,-0.018 0.015,-0.033 0.034,-0.033c0.001,0 0.002,0 0.003,0l0.138,0c0.001,0 0.002,0 0.003,0c0.019,0 0.034,0.015 0.034,0.033c0,0.002 -0.001,0.004 -0.001,0.005l0,0.188c0,0.027 0.011,0.041 0.03,0.041c0.02,0 0.047,-0.02 0.083,-0.061c0.047,-0.051 0.098,-0.099 0.153,-0.142c0.023,-0.02 0.051,-0.035 0.08,-0.044c0.03,-0.012 0.061,-0.019 0.093,-0.02l0.139,0c0.001,0 0.002,0 0.003,0c0.019,0 0.034,0.015 0.034,0.034c0,0.001 0,0.003 0,0.004l0,0.191c0,0.025 -0.011,0.038 -0.034,0.038Z" style="fill-rule:nonzero;"/><path d="M71.866,23.099l-0.178,0c-0.001,0 -0.003,0 -0.004,0c-0.018,0 -0.033,-0.015 -0.033,-0.033c0,-0.002 0,-0.003 0,-0.005l0,-1.008c0,-0.052 -0.011,-0.103 -0.031,-0.151c-0.022,-0.046 -0.05,-0.089 -0.084,-0.127c-0.033,-0.036 -0.072,-0.067 -0.117,-0.088c-0.041,-0.02 -0.087,-0.031 -0.133,-0.032c-0.045,0.001 -0.089,0.013 -0.129,0.034c-0.087,0.046 -0.156,0.119 -0.197,0.208c-0.022,0.047 -0.033,0.099 -0.032,0.15l0,1.009c0,0.002 0,0.003 0,0.005c0,0.018 -0.015,0.033 -0.034,0.033c-0.001,0 -0.003,0 -0.004,0l-0.177,0c-0.001,0 -0.002,0 -0.004,0c-0.018,0 -0.033,-0.015 -0.033,-0.033c0,-0.002 0,-0.003 0,-0.005l0,-1.009c0.001,-0.051 -0.01,-0.103 -0.032,-0.15c-0.021,-0.046 -0.049,-0.089 -0.083,-0.127c-0.033,-0.037 -0.072,-0.067 -0.117,-0.088c-0.042,-0.021 -0.087,-0.031 -0.133,-0.032c-0.046,0 -0.091,0.011 -0.132,0.032c-0.044,0.021 -0.083,0.051 -0.115,0.088c-0.035,0.038 -0.062,0.081 -0.082,0.127c-0.02,0.048 -0.03,0.099 -0.03,0.15l0,1.009c0,0.002 0,0.003 0,0.005c0,0.018 -0.015,0.033 -0.033,0.033c-0.001,0 -0.002,0 -0.003,0l-0.178,0c-0.001,0 -0.003,0 -0.004,0c-0.018,0 -0.033,-0.015 -0.033,-0.033c0,-0.002 0,-0.003 0,-0.005l0,-1.577c0,-0.001 0,-0.003 0,-0.004c0,-0.019 0.015,-0.034 0.034,-0.034c0.001,0 0.002,0 0.003,0l0.133,0c0.001,0 0.002,0 0.003,0c0.019,0 0.034,0.015 0.034,0.033c0,0.002 0,0.004 -0.001,0.005l0,0.15c0,0.03 0.009,0.045 0.026,0.045c0.018,-0.002 0.035,-0.011 0.047,-0.025l0.077,-0.065c0.045,-0.035 0.09,-0.067 0.134,-0.097c0.053,-0.034 0.115,-0.05 0.177,-0.046c0.091,-0.002 0.18,0.028 0.251,0.086c0.043,0.035 0.084,0.072 0.122,0.111c0.027,0.029 0.045,0.044 0.054,0.044c0.01,0 0.028,-0.014 0.053,-0.042c0.036,-0.038 0.075,-0.072 0.116,-0.104c0.09,-0.067 0.201,-0.101 0.313,-0.095c0.085,-0.001 0.169,0.015 0.249,0.046c0.073,0.028 0.14,0.071 0.195,0.127c0.054,0.056 0.097,0.121 0.127,0.193c0.032,0.078 0.048,0.161 0.047,0.246l0,1.008c0.007,0.025 -0.004,0.038 -0.029,0.038Z" style="fill-rule:nonzero;"/><path d="M73.579,23.099l-0.137,0c-0.025,0 -0.036,-0.013 -0.036,-0.038l0,-0.161c0,-0.03 -0.011,-0.045 -0.03,-0.045c-0.02,0 -0.047,0.018 -0.081,0.053c-0.033,0.036 -0.081,0.077 -0.141,0.127c-0.026,0.021 -0.056,0.036 -0.087,0.047c-0.028,0.01 -0.057,0.016 -0.086,0.017l-0.15,0c-0.127,0.006 -0.252,-0.038 -0.345,-0.124c-0.086,-0.081 -0.133,-0.195 -0.13,-0.313l0,-0.023c-0.004,-0.118 0.044,-0.232 0.13,-0.312c0.094,-0.086 0.218,-0.131 0.345,-0.125l0.496,0c0.001,0 0.003,0 0.004,0c0.018,0 0.033,-0.015 0.033,-0.033c0,-0.002 0,-0.003 0,-0.005l0,-0.15c0.001,-0.105 -0.041,-0.205 -0.114,-0.279c-0.076,-0.075 -0.179,-0.115 -0.285,-0.111c-0.094,-0.002 -0.184,0.034 -0.252,0.098c-0.033,0.026 -0.062,0.057 -0.087,0.09c-0.017,0.025 -0.032,0.037 -0.044,0.037c-0.007,0.002 -0.014,0.002 -0.02,0l-0.158,-0.082c-0.015,-0.007 -0.023,-0.017 -0.023,-0.026c0.002,-0.038 0.017,-0.075 0.042,-0.104c0.033,-0.041 0.072,-0.076 0.116,-0.104c0.056,-0.037 0.118,-0.065 0.182,-0.085c0.079,-0.023 0.16,-0.034 0.242,-0.033c0.175,-0.01 0.347,0.049 0.479,0.164c0.12,0.114 0.184,0.274 0.176,0.439l0,1.042c-0.003,0.026 -0.014,0.039 -0.039,0.039Zm-0.215,-0.683c0,-0.001 0,-0.003 0,-0.004c0,-0.018 -0.015,-0.034 -0.033,-0.034c-0.001,0 -0.003,0.001 -0.004,0.001l-0.497,0c-0.002,0 -0.004,0 -0.006,0c-0.119,0 -0.216,0.098 -0.216,0.216c0,0.002 0,0.003 0,0.005l0,0.06c-0.002,0.06 0.022,0.118 0.065,0.16c0.041,0.043 0.098,0.067 0.157,0.065l0.151,0c0.15,0 0.277,-0.107 0.38,-0.322l0,-0.079l0.003,-0.068Z" style="fill-rule:nonzero;"/><path d="M75.322,22.806c-0.011,0.072 -0.054,0.136 -0.116,0.174c-0.102,0.075 -0.22,0.126 -0.345,0.149l-0.094,0.195c-0.004,0.007 -0.007,0.014 -0.007,0.022c0.001,0.014 0.009,0.027 0.022,0.034c0.099,0.044 0.166,0.139 0.173,0.247l0,0.034c0.001,0.085 -0.034,0.166 -0.096,0.224c-0.069,0.062 -0.161,0.095 -0.254,0.09l-0.134,0c-0.001,0.001 -0.003,0.001 -0.004,0.001c-0.019,0 -0.034,-0.015 -0.034,-0.034c0,-0.001 0,-0.003 0,-0.004l0,-0.061c0,-0.001 0,-0.003 0,-0.004c0,-0.018 0.015,-0.033 0.034,-0.033c0.001,0 0.003,0 0.004,0l0.134,0c0.049,0.001 0.095,-0.018 0.129,-0.052c0.033,-0.034 0.052,-0.08 0.052,-0.127l0,-0.035c0,-0.062 -0.017,-0.104 -0.049,-0.121c-0.042,-0.023 -0.086,-0.041 -0.132,-0.055c-0.027,-0.007 -0.04,-0.018 -0.04,-0.03l0.007,-0.022l0.124,-0.258c-0.167,-0.004 -0.326,-0.07 -0.446,-0.186c-0.108,-0.116 -0.165,-0.271 -0.158,-0.429l0,-0.507c-0.009,-0.167 0.055,-0.329 0.175,-0.446c0.13,-0.115 0.3,-0.174 0.474,-0.165c0.08,0 0.16,0.011 0.238,0.034c0.064,0.02 0.126,0.047 0.184,0.082c0.046,0.028 0.086,0.063 0.12,0.104c0.025,0.029 0.04,0.066 0.043,0.105c0,0.012 -0.009,0.023 -0.026,0.03l-0.158,0.078c-0.005,0.001 -0.01,0.001 -0.015,0c-0.012,-0.001 -0.022,-0.006 -0.03,-0.015c-0.028,-0.025 -0.054,-0.05 -0.079,-0.075c-0.024,-0.025 -0.05,-0.047 -0.078,-0.067c-0.027,-0.021 -0.057,-0.037 -0.089,-0.047c-0.035,-0.012 -0.073,-0.018 -0.11,-0.017c-0.055,0 -0.109,0.01 -0.16,0.031c-0.046,0.021 -0.089,0.049 -0.126,0.085c-0.035,0.036 -0.063,0.079 -0.082,0.126c-0.02,0.049 -0.03,0.102 -0.029,0.155l0,0.507c-0.001,0.053 0.009,0.106 0.029,0.155c0.019,0.048 0.048,0.092 0.084,0.128c0.037,0.036 0.08,0.065 0.127,0.086c0.049,0.022 0.103,0.033 0.157,0.032c0.093,-0.001 0.181,-0.039 0.247,-0.104c0.032,-0.029 0.061,-0.06 0.089,-0.093c0.018,-0.023 0.034,-0.036 0.046,-0.036c0.007,-0.001 0.013,-0.001 0.019,0l0.158,0.079c0.016,0.004 0.026,0.02 0.022,0.036Z" style="fill-rule:nonzero;"/><path d="M76.95,23.099l-0.136,0c-0.002,0 -0.003,0 -0.005,0c-0.018,0 -0.033,-0.015 -0.033,-0.033c0,-0.002 0,-0.003 0,-0.005l0,-0.161c0,-0.03 -0.009,-0.045 -0.029,-0.045c-0.02,0 -0.047,0.018 -0.081,0.053c-0.045,0.045 -0.092,0.087 -0.141,0.127c-0.026,0.021 -0.055,0.036 -0.086,0.047c-0.028,0.01 -0.057,0.016 -0.087,0.017l-0.151,0c-0.127,0.006 -0.25,-0.038 -0.344,-0.124c-0.086,-0.081 -0.133,-0.195 -0.13,-0.313l0,-0.023c-0.004,-0.118 0.044,-0.232 0.13,-0.312c0.094,-0.084 0.218,-0.128 0.344,-0.122l0.497,0c0.002,0 0.003,0 0.005,0c0.018,0 0.033,-0.015 0.033,-0.033c0,-0.002 0,-0.003 0,-0.005l0,-0.15c0.001,-0.105 -0.041,-0.205 -0.115,-0.279c-0.075,-0.075 -0.178,-0.115 -0.283,-0.111c-0.094,-0.002 -0.185,0.034 -0.253,0.098c-0.032,0.027 -0.061,0.057 -0.086,0.09c-0.018,0.025 -0.033,0.037 -0.046,0.037c-0.006,0.002 -0.013,0.002 -0.019,0l-0.157,-0.082c-0.016,-0.007 -0.023,-0.017 -0.023,-0.026c0.002,-0.038 0.016,-0.075 0.041,-0.104c0.033,-0.041 0.072,-0.076 0.116,-0.104c0.057,-0.037 0.118,-0.065 0.182,-0.085c0.079,-0.023 0.16,-0.034 0.242,-0.033c0.176,-0.01 0.348,0.049 0.48,0.165c0.119,0.114 0.183,0.274 0.176,0.438l0,1.042c-0.004,0.023 -0.016,0.036 -0.041,0.036Zm-0.064,-2.148c-0.003,0.023 -0.012,0.045 -0.026,0.064c-0.02,0.03 -0.043,0.058 -0.07,0.082c-0.03,0.028 -0.062,0.052 -0.097,0.072c-0.034,0.019 -0.072,0.029 -0.111,0.029c-0.086,-0.004 -0.168,-0.039 -0.232,-0.097l-0.075,-0.049c-0.047,-0.033 -0.101,-0.052 -0.158,-0.056c-0.028,-0.001 -0.055,0.005 -0.081,0.016c-0.021,0.011 -0.042,0.023 -0.061,0.038c-0.018,0.014 -0.032,0.027 -0.045,0.037c-0.008,0.009 -0.018,0.015 -0.03,0.017c-0.009,0.001 -0.019,-0.001 -0.026,-0.007l-0.038,-0.026c-0.009,-0.008 -0.015,-0.019 -0.015,-0.03c-0.002,-0.007 -0.002,-0.013 0,-0.019c0.087,-0.147 0.188,-0.221 0.303,-0.221c0.036,0 0.072,0.007 0.104,0.023c0.037,0.017 0.072,0.039 0.104,0.063l0.079,0.06c0.023,0.017 0.049,0.03 0.077,0.039c0.028,0.011 0.058,0.017 0.088,0.017c0.029,0.001 0.057,-0.005 0.083,-0.017c0.023,-0.01 0.045,-0.023 0.065,-0.039c0.019,-0.015 0.035,-0.028 0.047,-0.04c0.008,-0.009 0.018,-0.014 0.029,-0.016c0.01,-0.001 0.019,0.002 0.027,0.007l0.034,0.027c0.019,0.016 0.025,0.026 0.025,0.026Zm-0.15,1.459c0,-0.001 0,-0.003 0,-0.004c0,-0.019 -0.015,-0.034 -0.033,-0.034c-0.002,0 -0.003,0 -0.005,0.001l-0.497,0c-0.001,-0.001 -0.003,-0.001 -0.004,-0.001c-0.12,0 -0.219,0.099 -0.219,0.219c0,0.001 0,0.002 0,0.002l0,0.061c-0.001,0.06 0.023,0.118 0.067,0.159c0.04,0.043 0.097,0.067 0.156,0.066l0.15,0c0.152,0 0.278,-0.107 0.381,-0.322l0,-0.079l0.004,-0.068Z" style="fill-rule:nonzero;"/><path d="M78.665,22.968c-0.13,0.118 -0.302,0.179 -0.478,0.172c-0.174,0.009 -0.345,-0.051 -0.475,-0.167c-0.118,-0.118 -0.182,-0.281 -0.174,-0.448l0,-0.507c-0.008,-0.166 0.055,-0.329 0.174,-0.446c0.131,-0.115 0.302,-0.174 0.475,-0.165c0.092,-0.001 0.184,0.014 0.27,0.045c0.077,0.028 0.148,0.071 0.209,0.125c0.057,0.055 0.103,0.121 0.132,0.194c0.032,0.079 0.048,0.163 0.047,0.247l0,0.507c0.006,0.166 -0.06,0.327 -0.18,0.443Zm-0.073,-0.953c0,-0.052 -0.011,-0.104 -0.032,-0.151c-0.039,-0.096 -0.114,-0.174 -0.209,-0.215c-0.05,-0.021 -0.104,-0.031 -0.158,-0.031c-0.055,-0.001 -0.109,0.01 -0.16,0.031c-0.047,0.021 -0.09,0.049 -0.127,0.085c-0.035,0.036 -0.063,0.079 -0.082,0.126c-0.02,0.049 -0.031,0.102 -0.03,0.155l0,0.507c-0.001,0.053 0.01,0.106 0.03,0.155c0.019,0.048 0.048,0.091 0.084,0.128c0.037,0.036 0.08,0.065 0.126,0.085c0.05,0.023 0.104,0.034 0.159,0.033c0.107,-0.001 0.21,-0.043 0.286,-0.118c0.036,-0.037 0.065,-0.081 0.085,-0.128c0.021,-0.049 0.032,-0.102 0.032,-0.155l-0.004,-0.507Z" style="fill-rule:nonzero;"/><path d="M81.326,23.099l-0.137,0c-0.001,0 -0.002,0 -0.003,0c-0.019,0 -0.034,-0.015 -0.034,-0.033c0,-0.002 0,-0.003 0.001,-0.005l0,-0.161c0,-0.027 -0.01,-0.041 -0.03,-0.041c-0.018,0.003 -0.034,0.012 -0.046,0.026l-0.07,0.068c-0.042,0.037 -0.086,0.072 -0.133,0.104c-0.063,0.035 -0.136,0.051 -0.208,0.045c-0.083,0.001 -0.166,-0.015 -0.243,-0.045c-0.072,-0.029 -0.138,-0.072 -0.194,-0.126c-0.056,-0.055 -0.1,-0.122 -0.129,-0.195c-0.032,-0.079 -0.048,-0.164 -0.047,-0.249l0,-0.431c-0.001,-0.084 0.014,-0.167 0.045,-0.244c0.028,-0.072 0.07,-0.138 0.124,-0.193c0.053,-0.054 0.117,-0.098 0.186,-0.128c0.073,-0.032 0.152,-0.048 0.232,-0.047c0.04,0 0.08,0.004 0.119,0.013c0.028,0.008 0.055,0.019 0.081,0.033c0.056,0.036 0.108,0.078 0.154,0.127c0.034,0.04 0.063,0.06 0.082,0.06c0.02,0 0.031,-0.013 0.031,-0.041l0,-0.855c-0.001,-0.001 -0.001,-0.003 -0.001,-0.004c0,-0.019 0.015,-0.034 0.034,-0.034c0.001,0 0.002,0 0.003,0.001l0.177,0c0.002,-0.001 0.003,-0.001 0.005,-0.001c0.018,0 0.033,0.015 0.033,0.034c0,0.001 0,0.003 0,0.004l0,2.284c0,0 0,0 0,0.001c0,0.018 -0.015,0.032 -0.032,0.033Zm-0.209,-1.042c0,-0.053 -0.011,-0.105 -0.032,-0.152c-0.02,-0.048 -0.049,-0.091 -0.085,-0.128c-0.036,-0.037 -0.08,-0.066 -0.128,-0.086c-0.151,-0.064 -0.327,-0.031 -0.445,0.084c-0.035,0.037 -0.063,0.079 -0.082,0.126c-0.02,0.05 -0.031,0.103 -0.03,0.156l0,0.431c-0.001,0.053 0.01,0.106 0.03,0.155c0.019,0.049 0.048,0.092 0.084,0.129c0.037,0.036 0.079,0.065 0.126,0.085c0.05,0.022 0.104,0.033 0.159,0.032c0.107,0 0.21,-0.042 0.286,-0.117c0.036,-0.037 0.065,-0.081 0.085,-0.129c0.022,-0.048 0.033,-0.101 0.032,-0.155l0,-0.431Z" style="fill-rule:nonzero;"/><path d="M83.114,22.281l-0.979,0c-0.001,0 -0.002,0 -0.003,0c-0.019,0 -0.034,0.015 -0.034,0.034c0,0.001 0,0.003 0,0.004l0,0.203c0,0.053 0.01,0.106 0.03,0.155c0.02,0.048 0.049,0.092 0.085,0.128c0.037,0.036 0.08,0.065 0.127,0.085c0.049,0.023 0.103,0.034 0.157,0.033c0.093,-0.001 0.183,-0.039 0.249,-0.104c0.032,-0.029 0.062,-0.06 0.089,-0.093c0.018,-0.023 0.034,-0.036 0.047,-0.036c0.006,-0.001 0.012,-0.001 0.018,0l0.158,0.079c0.013,0.003 0.023,0.016 0.023,0.03c-0.003,0.038 -0.018,0.075 -0.042,0.104c-0.032,0.044 -0.072,0.081 -0.118,0.109c-0.057,0.037 -0.119,0.065 -0.184,0.085c-0.078,0.023 -0.158,0.034 -0.239,0.033c-0.175,0.01 -0.346,-0.05 -0.476,-0.167c-0.12,-0.117 -0.183,-0.28 -0.175,-0.448l0,-0.506c0.001,-0.074 0.016,-0.146 0.044,-0.214c0.032,-0.074 0.076,-0.141 0.132,-0.199c0.122,-0.13 0.294,-0.203 0.473,-0.198c0.087,0 0.174,0.017 0.254,0.05c0.077,0.033 0.148,0.078 0.209,0.136c0.062,0.056 0.112,0.124 0.148,0.201c0.033,0.072 0.05,0.151 0.05,0.23l0,0.228c0,0.003 0,0.005 0,0.008c0,0.017 -0.014,0.032 -0.032,0.032c-0.004,0 -0.007,-0.001 -0.011,-0.002Zm-0.216,-0.266c0,-0.052 -0.01,-0.103 -0.031,-0.151c-0.021,-0.048 -0.05,-0.091 -0.086,-0.128c-0.036,-0.037 -0.08,-0.066 -0.128,-0.087c-0.05,-0.021 -0.104,-0.031 -0.158,-0.031c-0.055,-0.001 -0.109,0.01 -0.16,0.031c-0.046,0.02 -0.089,0.049 -0.126,0.085c-0.036,0.036 -0.064,0.079 -0.083,0.126c-0.02,0.049 -0.03,0.102 -0.03,0.155l0,0.053c0,0.025 0.012,0.037 0.037,0.037l0.73,0c0.025,0 0.037,-0.012 0.037,-0.037l-0.002,-0.053Z" style="fill-rule:nonzero;"/><path d="M85.109,23.073c-0.006,0.016 -0.021,0.026 -0.038,0.026l-0.149,0c-0.017,0 -0.032,-0.01 -0.038,-0.026l-0.69,-2.284l0,-0.009c-0.001,-0.002 -0.001,-0.004 0,-0.006c0,-0.023 0.013,-0.034 0.04,-0.034l0.181,0c0.023,0 0.035,0.009 0.037,0.027l0.548,1.908l0.019,0l0.528,-1.908c0,-0.018 0.015,-0.027 0.038,-0.027l0.18,0c0.027,0 0.041,0.011 0.041,0.034c0,0.002 0,0.004 0,0.006c-0.001,0.003 -0.001,0.006 0,0.009l-0.697,2.284Z" style="fill-rule:nonzero;"/><path d="M86.216,22.972c0.001,0.049 -0.018,0.096 -0.053,0.131c-0.036,0.035 -0.085,0.054 -0.135,0.052c-0.049,0.001 -0.095,-0.019 -0.128,-0.054c-0.069,-0.072 -0.069,-0.187 0,-0.259c0.033,-0.035 0.08,-0.055 0.128,-0.055c0.05,-0.001 0.1,0.018 0.135,0.053c0.035,0.035 0.054,0.083 0.053,0.132Z" style="fill-rule:nonzero;"/><path d="M88.976,23.099l-0.162,0l-0.034,-0.019l-1.009,-1.849l-0.007,0l0.019,1.83c0,0.002 0,0.003 0,0.005c0,0.018 -0.015,0.033 -0.033,0.033c-0.002,0 -0.003,0 -0.005,0l-0.176,0c-0.001,0 -0.003,0 -0.004,0c-0.018,0 -0.034,-0.015 -0.034,-0.033c0,-0.002 0.001,-0.003 0.001,-0.005l0,-2.283c0,-0.002 -0.001,-0.003 -0.001,-0.005c0,-0.018 0.016,-0.033 0.034,-0.033c0.001,0 0.003,0 0.004,0l0.161,0l0.034,0.019l1.012,1.859l0.007,0l-0.021,-1.84c-0.001,-0.001 -0.001,-0.003 -0.001,-0.004c0,-0.019 0.015,-0.034 0.034,-0.034c0.001,0 0.002,0 0.003,0l0.177,0c0.002,0 0.003,0 0.005,0c0.018,0 0.033,0.015 0.033,0.033c0,0.002 0,0.003 0,0.005l0,2.283c0,0.002 0,0.003 0,0.005c0,0.018 -0.015,0.033 -0.033,0.033c-0.001,0 -0.003,0 -0.004,0Z" style="fill-rule:nonzero;"/><path d="M89.89,22.972c0.001,0.049 -0.017,0.096 -0.052,0.131c-0.036,0.035 -0.085,0.054 -0.135,0.052c-0.048,0.001 -0.095,-0.019 -0.127,-0.054c-0.071,-0.071 -0.071,-0.188 0,-0.259c0.032,-0.036 0.079,-0.055 0.127,-0.055c0.05,-0.001 0.099,0.018 0.135,0.053c0.035,0.035 0.054,0.083 0.052,0.132Z" style="fill-rule:nonzero;"/><path d="M92.394,22.969c-0.132,0.116 -0.304,0.176 -0.479,0.167l-0.116,0c-0.175,0.01 -0.347,-0.051 -0.477,-0.168c-0.119,-0.117 -0.183,-0.28 -0.176,-0.446l0,-1.208c-0.007,-0.167 0.057,-0.33 0.176,-0.446c0.13,-0.118 0.302,-0.178 0.477,-0.169l0.187,0c0.081,-0.001 0.161,0.01 0.239,0.033c0.064,0.019 0.126,0.046 0.183,0.081c0.046,0.027 0.086,0.062 0.118,0.105c0.025,0.029 0.039,0.066 0.042,0.104c0,0.011 -0.009,0.022 -0.026,0.029l-0.156,0.079c-0.005,0.002 -0.012,0.002 -0.017,0c-0.011,0 -0.021,-0.006 -0.026,-0.015c-0.049,-0.051 -0.1,-0.099 -0.154,-0.144c-0.057,-0.045 -0.129,-0.067 -0.202,-0.063l-0.188,0c-0.055,0 -0.109,0.01 -0.16,0.03c-0.047,0.02 -0.09,0.049 -0.126,0.085c-0.037,0.037 -0.066,0.08 -0.085,0.128c-0.02,0.049 -0.031,0.102 -0.031,0.155l0,1.21c0,0.055 0.011,0.11 0.033,0.161c0.02,0.046 0.049,0.089 0.085,0.125c0.036,0.036 0.079,0.065 0.126,0.084c0.05,0.022 0.103,0.033 0.158,0.033l0.116,0c0.054,0 0.108,-0.011 0.158,-0.033c0.047,-0.02 0.091,-0.049 0.128,-0.085c0.037,-0.037 0.066,-0.081 0.087,-0.128c0.021,-0.049 0.032,-0.102 0.032,-0.156l0,-0.3c0,-0.001 0,-0.003 0,-0.004c0,-0.019 -0.015,-0.034 -0.033,-0.034c-0.002,0 -0.003,0.001 -0.005,0.001l-0.393,0c-0.001,0 -0.003,0 -0.004,0c-0.018,0 -0.033,-0.015 -0.033,-0.033c0,-0.001 0,-0.003 0,-0.004l0,-0.14c0,-0.002 0,-0.003 0,-0.004c0,-0.018 0.015,-0.033 0.033,-0.033c0.001,0 0.003,0 0.004,0l0.645,0c0.025,0 0.037,0.013 0.037,0.038l0,0.521c0.007,0.166 -0.058,0.328 -0.177,0.444Z" style="fill-rule:nonzero;"/><path d="M94.233,23.099l-0.136,0c-0.002,0 -0.003,0 -0.005,0c-0.018,0 -0.033,-0.015 -0.033,-0.033c0,-0.002 0,-0.003 0,-0.005l0,-0.161c0,-0.03 -0.009,-0.045 -0.029,-0.045c-0.02,0 -0.047,0.018 -0.08,0.053c-0.034,0.036 -0.082,0.077 -0.142,0.127c-0.026,0.021 -0.055,0.036 -0.087,0.047c-0.027,0.01 -0.057,0.016 -0.086,0.017l-0.15,0c-0.127,0.006 -0.251,-0.038 -0.345,-0.124c-0.085,-0.081 -0.132,-0.195 -0.129,-0.313l0,-0.023c-0.004,-0.118 0.043,-0.232 0.129,-0.312c0.094,-0.085 0.218,-0.128 0.345,-0.122l0.496,0c0.001,0 0.003,0 0.004,0c0.019,0 0.034,-0.015 0.034,-0.033c0,-0.002 0,-0.003 -0.001,-0.005l0,-0.15c0.001,-0.104 -0.04,-0.205 -0.114,-0.279c-0.076,-0.075 -0.179,-0.115 -0.285,-0.111c-0.093,-0.002 -0.184,0.034 -0.252,0.098c-0.032,0.027 -0.061,0.057 -0.086,0.09c-0.018,0.025 -0.033,0.037 -0.046,0.037c-0.006,0.002 -0.013,0.002 -0.019,0l-0.157,-0.082c-0.016,-0.007 -0.023,-0.017 -0.023,-0.026c0.002,-0.038 0.016,-0.075 0.041,-0.104c0.033,-0.041 0.072,-0.076 0.116,-0.104c0.057,-0.037 0.118,-0.065 0.182,-0.085c0.079,-0.023 0.16,-0.034 0.242,-0.033c0.175,-0.01 0.348,0.049 0.48,0.165c0.119,0.114 0.183,0.274 0.176,0.438l0,1.042c-0.003,0.023 -0.015,0.036 -0.04,0.036Zm-0.215,-0.683c0.001,-0.001 0.001,-0.003 0.001,-0.004c0,-0.018 -0.015,-0.034 -0.034,-0.034c-0.001,0 -0.003,0.001 -0.004,0.001l-0.497,0c-0.002,0 -0.004,0 -0.005,0c-0.119,0 -0.217,0.098 -0.217,0.216c0,0.002 0,0.003 0,0.005l0,0.06c-0.001,0.06 0.022,0.118 0.065,0.16c0.041,0.043 0.098,0.067 0.157,0.065l0.149,0c0.15,0 0.277,-0.107 0.38,-0.322l0,-0.079l0.005,-0.068Z" style="fill-rule:nonzero;"/><path d="M95.166,20.864c0,0.045 -0.017,0.087 -0.049,0.118c-0.031,0.033 -0.075,0.051 -0.12,0.05c-0.043,0.001 -0.084,-0.016 -0.114,-0.047c-0.031,-0.032 -0.048,-0.075 -0.046,-0.121c-0.001,-0.089 0.071,-0.162 0.16,-0.165c0.045,-0.002 0.09,0.015 0.122,0.047c0.031,0.031 0.048,0.074 0.047,0.118Zm-0.074,2.235l-0.177,0c-0.025,0 -0.037,-0.013 -0.037,-0.038l0,-1.582c0,-0.025 0.012,-0.038 0.037,-0.038l0.177,0c0.001,0 0.002,0 0.003,0c0.019,0 0.035,0.015 0.035,0.034c0,0.001 0,0.003 -0.001,0.004l0,1.582c0.001,0.002 0.001,0.003 0.001,0.005c0,0.018 -0.015,0.033 -0.034,0.033c-0.001,0 -0.003,0 -0.004,0Z" style="fill-rule:nonzero;"/><path d="M96.742,23.099l-0.137,0c-0.001,0 -0.003,0 -0.004,0c-0.019,0 -0.034,-0.015 -0.034,-0.033c0,-0.002 0,-0.003 0.001,-0.005l0,-0.161c0,-0.03 -0.01,-0.045 -0.03,-0.045c-0.019,0 -0.046,0.018 -0.08,0.053c-0.033,0.036 -0.081,0.077 -0.142,0.127c-0.026,0.021 -0.055,0.036 -0.086,0.047c-0.028,0.01 -0.057,0.016 -0.087,0.017l-0.15,0c-0.127,0.006 -0.251,-0.038 -0.345,-0.124c-0.085,-0.081 -0.132,-0.195 -0.129,-0.313l0,-0.023c-0.004,-0.118 0.043,-0.232 0.129,-0.312c0.095,-0.085 0.219,-0.128 0.345,-0.122l0.496,0c0.002,0 0.003,0 0.005,0c0.018,0 0.033,-0.015 0.033,-0.033c0,-0.002 0,-0.003 0,-0.005l0,-0.15c0,-0.104 -0.041,-0.205 -0.115,-0.279c-0.075,-0.075 -0.178,-0.115 -0.284,-0.111c-0.094,-0.002 -0.185,0.034 -0.252,0.098c-0.033,0.027 -0.062,0.057 -0.087,0.09c-0.018,0.025 -0.032,0.037 -0.046,0.037c-0.006,0.002 -0.012,0.002 -0.019,0l-0.157,-0.082c-0.016,-0.007 -0.023,-0.017 -0.023,-0.026c0.002,-0.038 0.017,-0.075 0.042,-0.104c0.032,-0.041 0.071,-0.076 0.116,-0.104c0.056,-0.037 0.118,-0.065 0.182,-0.085c0.078,-0.023 0.16,-0.034 0.242,-0.033c0.175,-0.01 0.347,0.049 0.479,0.165c0.119,0.114 0.184,0.274 0.176,0.438l0,1.042c-0.003,0.023 -0.014,0.036 -0.039,0.036Zm-0.215,-0.683c0,-0.001 0,-0.003 0,-0.004c0,-0.018 -0.015,-0.034 -0.033,-0.034c-0.002,0 -0.003,0.001 -0.005,0.001l-0.497,0c-0.001,0 -0.003,0 -0.005,0c-0.119,0 -0.217,0.098 -0.217,0.216c0,0.002 0,0.003 0,0.005l0,0.06c-0.001,0.06 0.023,0.118 0.066,0.16c0.04,0.043 0.097,0.067 0.156,0.065l0.151,0c0.151,0 0.277,-0.107 0.381,-0.322l0,-0.079l0.003,-0.068Z" style="fill-rule:nonzero;"/></g></g></svg>